%TF.GenerationSoftware,KiCad,Pcbnew,6.0.9+dfsg-1*%
%TF.CreationDate,2023-02-24T18:39:48-08:00*%
%TF.ProjectId,latency_schematic,6c617465-6e63-4795-9f73-6368656d6174,rev?*%
%TF.SameCoordinates,PX48ab840PY3abdd78*%
%TF.FileFunction,Copper,L1,Top*%
%TF.FilePolarity,Positive*%
%FSLAX46Y46*%
G04 Gerber Fmt 4.6, Leading zero omitted, Abs format (unit mm)*
G04 Created by KiCad (PCBNEW 6.0.9+dfsg-1) date 2023-02-24 18:39:48*
%MOMM*%
%LPD*%
G01*
G04 APERTURE LIST*
%TA.AperFunction,ComponentPad*%
%ADD10R,1.700000X1.700000*%
%TD*%
%TA.AperFunction,ComponentPad*%
%ADD11R,1.500000X1.500000*%
%TD*%
%TA.AperFunction,ComponentPad*%
%ADD12C,1.500000*%
%TD*%
%TA.AperFunction,ComponentPad*%
%ADD13C,1.600000*%
%TD*%
%TA.AperFunction,ComponentPad*%
%ADD14O,1.600000X1.600000*%
%TD*%
%TA.AperFunction,ComponentPad*%
%ADD15O,1.700000X1.700000*%
%TD*%
%TA.AperFunction,Conductor*%
%ADD16C,0.400000*%
%TD*%
G04 APERTURE END LIST*
D10*
%TO.P,J3,1,Pin_1*%
%TO.N,/WGND*%
X3810000Y-10160000D03*
%TD*%
D11*
%TO.P,Q2,1,D*%
%TO.N,/BB*%
X10160000Y-4085000D03*
D12*
%TO.P,Q2,2,G*%
%TO.N,Net-(Q2-Pad2)*%
X12700000Y-4085000D03*
%TO.P,Q2,3,S*%
%TO.N,Net-(Q2-Pad3)*%
X15240000Y-4085000D03*
%TD*%
D11*
%TO.P,Q1,1,D*%
%TO.N,/BA*%
X53340000Y-4445000D03*
D12*
%TO.P,Q1,2,G*%
%TO.N,Net-(Q1-Pad2)*%
X50800000Y-4445000D03*
%TO.P,Q1,3,S*%
%TO.N,Net-(Q1-Pad3)*%
X48260000Y-4445000D03*
%TD*%
D13*
%TO.P,R8,1*%
%TO.N,Net-(Q2-Pad3)*%
X20320000Y-2540000D03*
D14*
%TO.P,R8,2*%
%TO.N,/WGND*%
X30480000Y-2540000D03*
%TD*%
D13*
%TO.P,R7,1*%
%TO.N,Net-(Q1-Pad3)*%
X43180000Y-2540000D03*
D14*
%TO.P,R7,2*%
%TO.N,/WGND*%
X33020000Y-2540000D03*
%TD*%
%TO.P,R6,2*%
%TO.N,Net-(Q2-Pad3)*%
X20320000Y-6350000D03*
D13*
%TO.P,R6,1*%
%TO.N,GND*%
X30480000Y-6350000D03*
%TD*%
%TO.P,R5,1*%
%TO.N,GND*%
X33020000Y-6350000D03*
D14*
%TO.P,R5,2*%
%TO.N,Net-(Q1-Pad3)*%
X43180000Y-6350000D03*
%TD*%
D13*
%TO.P,R4,1*%
%TO.N,/GP6*%
X17780000Y-10160000D03*
D14*
%TO.P,R4,2*%
%TO.N,Net-(Q2-Pad2)*%
X7620000Y-10160000D03*
%TD*%
D13*
%TO.P,R3,1*%
%TO.N,/GP22*%
X45720000Y-10160000D03*
D14*
%TO.P,R3,2*%
%TO.N,Net-(Q1-Pad2)*%
X55880000Y-10160000D03*
%TD*%
D13*
%TO.P,R2,1*%
%TO.N,GND*%
X30480000Y-10160000D03*
D14*
%TO.P,R2,2*%
%TO.N,/GP6*%
X20320000Y-10160000D03*
%TD*%
D13*
%TO.P,R1,1*%
%TO.N,GND*%
X33020000Y-10160000D03*
D14*
%TO.P,R1,2*%
%TO.N,/GP22*%
X43180000Y-10160000D03*
%TD*%
D10*
%TO.P,J2,1,Pin_1*%
%TO.N,/BB*%
X3835000Y-5695000D03*
D15*
%TO.P,J2,2,Pin_2*%
%TO.N,/BA*%
X3835000Y-3155000D03*
%TD*%
D10*
%TO.P,J1,1,Pin_1*%
%TO.N,unconnected-(J1-Pad1)*%
X55245000Y-22225000D03*
D15*
%TO.P,J1,2,Pin_2*%
%TO.N,unconnected-(J1-Pad2)*%
X55245000Y-24765000D03*
%TO.P,J1,3,Pin_3*%
%TO.N,unconnected-(J1-Pad3)*%
X52705000Y-22225000D03*
%TO.P,J1,4,Pin_4*%
%TO.N,unconnected-(J1-Pad4)*%
X52705000Y-24765000D03*
%TO.P,J1,5,Pin_5*%
%TO.N,unconnected-(J1-Pad5)*%
X50165000Y-22225000D03*
%TO.P,J1,6,Pin_6*%
%TO.N,unconnected-(J1-Pad6)*%
X50165000Y-24765000D03*
%TO.P,J1,7,Pin_7*%
%TO.N,unconnected-(J1-Pad7)*%
X47625000Y-22225000D03*
%TO.P,J1,8,Pin_8*%
%TO.N,unconnected-(J1-Pad8)*%
X47625000Y-24765000D03*
%TO.P,J1,9,Pin_9*%
%TO.N,unconnected-(J1-Pad9)*%
X45085000Y-22225000D03*
%TO.P,J1,10,Pin_10*%
%TO.N,unconnected-(J1-Pad10)*%
X45085000Y-24765000D03*
%TO.P,J1,11,Pin_11*%
%TO.N,unconnected-(J1-Pad11)*%
X42545000Y-22225000D03*
%TO.P,J1,12,Pin_12*%
%TO.N,unconnected-(J1-Pad12)*%
X42545000Y-24765000D03*
%TO.P,J1,13,Pin_13*%
%TO.N,unconnected-(J1-Pad13)*%
X40005000Y-22225000D03*
%TO.P,J1,14,Pin_14*%
%TO.N,unconnected-(J1-Pad14)*%
X40005000Y-24765000D03*
%TO.P,J1,15,Pin_15*%
%TO.N,/GP22*%
X37465000Y-22225000D03*
%TO.P,J1,16,Pin_16*%
%TO.N,unconnected-(J1-Pad16)*%
X37465000Y-24765000D03*
%TO.P,J1,17,Pin_17*%
%TO.N,unconnected-(J1-Pad17)*%
X34925000Y-22225000D03*
%TO.P,J1,18,Pin_18*%
%TO.N,unconnected-(J1-Pad18)*%
X34925000Y-24765000D03*
%TO.P,J1,19,Pin_19*%
%TO.N,unconnected-(J1-Pad19)*%
X32385000Y-22225000D03*
%TO.P,J1,20,Pin_20*%
%TO.N,unconnected-(J1-Pad20)*%
X32385000Y-24765000D03*
%TO.P,J1,21,Pin_21*%
%TO.N,unconnected-(J1-Pad21)*%
X29845000Y-22225000D03*
%TO.P,J1,22,Pin_22*%
%TO.N,unconnected-(J1-Pad22)*%
X29845000Y-24765000D03*
%TO.P,J1,23,Pin_23*%
%TO.N,unconnected-(J1-Pad23)*%
X27305000Y-22225000D03*
%TO.P,J1,24,Pin_24*%
%TO.N,unconnected-(J1-Pad24)*%
X27305000Y-24765000D03*
%TO.P,J1,25,Pin_25*%
%TO.N,GND*%
X24765000Y-22225000D03*
%TO.P,J1,26,Pin_26*%
%TO.N,unconnected-(J1-Pad26)*%
X24765000Y-24765000D03*
%TO.P,J1,27,Pin_27*%
%TO.N,unconnected-(J1-Pad27)*%
X22225000Y-22225000D03*
%TO.P,J1,28,Pin_28*%
%TO.N,unconnected-(J1-Pad28)*%
X22225000Y-24765000D03*
%TO.P,J1,29,Pin_29*%
%TO.N,unconnected-(J1-Pad29)*%
X19685000Y-22225000D03*
%TO.P,J1,30,Pin_30*%
%TO.N,unconnected-(J1-Pad30)*%
X19685000Y-24765000D03*
%TO.P,J1,31,Pin_31*%
%TO.N,/GP6*%
X17145000Y-22225000D03*
%TO.P,J1,32,Pin_32*%
%TO.N,unconnected-(J1-Pad32)*%
X17145000Y-24765000D03*
%TO.P,J1,33,Pin_33*%
%TO.N,unconnected-(J1-Pad33)*%
X14605000Y-22225000D03*
%TO.P,J1,34,Pin_34*%
%TO.N,unconnected-(J1-Pad34)*%
X14605000Y-24765000D03*
%TO.P,J1,35,Pin_35*%
%TO.N,unconnected-(J1-Pad35)*%
X12065000Y-22225000D03*
%TO.P,J1,36,Pin_36*%
%TO.N,unconnected-(J1-Pad36)*%
X12065000Y-24765000D03*
%TO.P,J1,37,Pin_37*%
%TO.N,unconnected-(J1-Pad37)*%
X9525000Y-22225000D03*
%TO.P,J1,38,Pin_38*%
%TO.N,unconnected-(J1-Pad38)*%
X9525000Y-24765000D03*
%TO.P,J1,39,Pin_39*%
%TO.N,unconnected-(J1-Pad39)*%
X6985000Y-22225000D03*
%TO.P,J1,40,Pin_40*%
%TO.N,unconnected-(J1-Pad40)*%
X6985000Y-24765000D03*
%TD*%
D16*
%TO.N,/WGND*%
X12700000Y-8255000D02*
X24765000Y-8255000D01*
X30480000Y-2540000D02*
X24765000Y-8255000D01*
X33020000Y-2540000D02*
X30480000Y-2540000D01*
%TO.N,GND*%
X33020000Y-10160000D02*
X33020000Y-6350000D01*
%TO.N,/BA*%
X53340000Y-4445000D02*
X50035000Y-1140000D01*
X50035000Y-1140000D02*
X5850000Y-1140000D01*
X5850000Y-1140000D02*
X3835000Y-3155000D01*
%TO.N,GND*%
X30480000Y-6350000D02*
X33020000Y-6350000D01*
X24765000Y-22225000D02*
X24765000Y-15875000D01*
X24765000Y-15875000D02*
X30480000Y-10160000D01*
X33020000Y-10160000D02*
X30480000Y-10160000D01*
%TO.N,/WGND*%
X12700000Y-8255000D02*
X8255000Y-12700000D01*
X8255000Y-12700000D02*
X6350000Y-12700000D01*
X6350000Y-12700000D02*
X3810000Y-10160000D01*
%TO.N,Net-(Q1-Pad2)*%
X55880000Y-10160000D02*
X55880000Y-8890000D01*
X55880000Y-8890000D02*
X53975000Y-6985000D01*
X52070000Y-6985000D02*
X50800000Y-5715000D01*
X53975000Y-6985000D02*
X52070000Y-6985000D01*
X50800000Y-5715000D02*
X50800000Y-4445000D01*
%TO.N,Net-(Q1-Pad3)*%
X48260000Y-4445000D02*
X46355000Y-6350000D01*
X46355000Y-6350000D02*
X43180000Y-6350000D01*
X48260000Y-4445000D02*
X46355000Y-2540000D01*
X46355000Y-2540000D02*
X43180000Y-2540000D01*
%TO.N,Net-(Q2-Pad3)*%
X15240000Y-4085000D02*
X17505000Y-6350000D01*
X17505000Y-6350000D02*
X20320000Y-6350000D01*
X15240000Y-4085000D02*
X16785000Y-2540000D01*
X16785000Y-2540000D02*
X20320000Y-2540000D01*
%TO.N,/BB*%
X10160000Y-4085000D02*
X5445000Y-4085000D01*
X5445000Y-4085000D02*
X3835000Y-5695000D01*
%TO.N,Net-(Q2-Pad2)*%
X7620000Y-10160000D02*
X12700000Y-5080000D01*
X12700000Y-5080000D02*
X12700000Y-4085000D01*
%TO.N,/GP22*%
X43180000Y-10160000D02*
X45720000Y-10160000D01*
X37465000Y-22225000D02*
X43180000Y-16510000D01*
X43180000Y-16510000D02*
X43180000Y-10160000D01*
%TO.N,/GP6*%
X17780000Y-10160000D02*
X20320000Y-10160000D01*
X17145000Y-22225000D02*
X17145000Y-10795000D01*
X17145000Y-10795000D02*
X17780000Y-10160000D01*
%TD*%
%TA.AperFunction,Conductor*%
%TO.N,GND*%
G36*
X5243461Y-528502D02*
G01*
X5289954Y-582158D01*
X5300058Y-652432D01*
X5270564Y-717012D01*
X5264435Y-723595D01*
X4202316Y-1785714D01*
X4140004Y-1819740D01*
X4091125Y-1820666D01*
X3968373Y-1798800D01*
X3968367Y-1798799D01*
X3963284Y-1797894D01*
X3889452Y-1796992D01*
X3745081Y-1795228D01*
X3745079Y-1795228D01*
X3739911Y-1795165D01*
X3519091Y-1828955D01*
X3306756Y-1898357D01*
X3108607Y-2001507D01*
X3104474Y-2004610D01*
X3104471Y-2004612D01*
X2934100Y-2132530D01*
X2929965Y-2135635D01*
X2775629Y-2297138D01*
X2649743Y-2481680D01*
X2555688Y-2684305D01*
X2495989Y-2899570D01*
X2472251Y-3121695D01*
X2472548Y-3126848D01*
X2472548Y-3126851D01*
X2484362Y-3331739D01*
X2485110Y-3344715D01*
X2486247Y-3349761D01*
X2486248Y-3349767D01*
X2494031Y-3384300D01*
X2534222Y-3562639D01*
X2618266Y-3769616D01*
X2734987Y-3960088D01*
X2881250Y-4128938D01*
X2885230Y-4132242D01*
X2889981Y-4136187D01*
X2929616Y-4195090D01*
X2931113Y-4266071D01*
X2893997Y-4326593D01*
X2853724Y-4351112D01*
X2738295Y-4394385D01*
X2621739Y-4481739D01*
X2534385Y-4598295D01*
X2483255Y-4734684D01*
X2476500Y-4796866D01*
X2476500Y-6593134D01*
X2483255Y-6655316D01*
X2534385Y-6791705D01*
X2621739Y-6908261D01*
X2738295Y-6995615D01*
X2874684Y-7046745D01*
X2936866Y-7053500D01*
X4733134Y-7053500D01*
X4795316Y-7046745D01*
X4931705Y-6995615D01*
X5048261Y-6908261D01*
X5135615Y-6791705D01*
X5186745Y-6655316D01*
X5193500Y-6593134D01*
X5193500Y-5390660D01*
X5213502Y-5322539D01*
X5230405Y-5301565D01*
X5701565Y-4830405D01*
X5763877Y-4796379D01*
X5790660Y-4793500D01*
X8778709Y-4793500D01*
X8846830Y-4813502D01*
X8893323Y-4867158D01*
X8903972Y-4905892D01*
X8908255Y-4945316D01*
X8959385Y-5081705D01*
X9046739Y-5198261D01*
X9163295Y-5285615D01*
X9299684Y-5336745D01*
X9361866Y-5343500D01*
X10958134Y-5343500D01*
X11020316Y-5336745D01*
X11149201Y-5288428D01*
X11220009Y-5283245D01*
X11282378Y-5317166D01*
X11316507Y-5379421D01*
X11311560Y-5450245D01*
X11282526Y-5495505D01*
X9588241Y-7189789D01*
X7948012Y-8830018D01*
X7885700Y-8864044D01*
X7847937Y-8866444D01*
X7620000Y-8846502D01*
X7391913Y-8866457D01*
X7386600Y-8867881D01*
X7386598Y-8867881D01*
X7176067Y-8924293D01*
X7176065Y-8924294D01*
X7170757Y-8925716D01*
X7165776Y-8928039D01*
X7165775Y-8928039D01*
X6968238Y-9020151D01*
X6968233Y-9020154D01*
X6963251Y-9022477D01*
X6906080Y-9062509D01*
X6780211Y-9150643D01*
X6780208Y-9150645D01*
X6775700Y-9153802D01*
X6613802Y-9315700D01*
X6482477Y-9503251D01*
X6480154Y-9508233D01*
X6480151Y-9508238D01*
X6439300Y-9595845D01*
X6385716Y-9710757D01*
X6384294Y-9716065D01*
X6384293Y-9716067D01*
X6363019Y-9795461D01*
X6326457Y-9931913D01*
X6306502Y-10160000D01*
X6326457Y-10388087D01*
X6327881Y-10393400D01*
X6327881Y-10393402D01*
X6365025Y-10532022D01*
X6385716Y-10609243D01*
X6388039Y-10614224D01*
X6388039Y-10614225D01*
X6480151Y-10811762D01*
X6480154Y-10811767D01*
X6482477Y-10816749D01*
X6613802Y-11004300D01*
X6775700Y-11166198D01*
X6780208Y-11169355D01*
X6780211Y-11169357D01*
X6847177Y-11216247D01*
X6963251Y-11297523D01*
X6968233Y-11299846D01*
X6968238Y-11299849D01*
X7137212Y-11378642D01*
X7170757Y-11394284D01*
X7176065Y-11395706D01*
X7176067Y-11395707D01*
X7386598Y-11452119D01*
X7386600Y-11452119D01*
X7391913Y-11453543D01*
X7620000Y-11473498D01*
X7848087Y-11453543D01*
X7853400Y-11452119D01*
X7853402Y-11452119D01*
X8063933Y-11395707D01*
X8063935Y-11395706D01*
X8069243Y-11394284D01*
X8102788Y-11378642D01*
X8271762Y-11299849D01*
X8271767Y-11299846D01*
X8276749Y-11297523D01*
X8360421Y-11238935D01*
X8427695Y-11216247D01*
X8496555Y-11233532D01*
X8545140Y-11285302D01*
X8558023Y-11355120D01*
X8531114Y-11420819D01*
X8521787Y-11431243D01*
X7998435Y-11954595D01*
X7936123Y-11988621D01*
X7909340Y-11991500D01*
X6695660Y-11991500D01*
X6627539Y-11971498D01*
X6606565Y-11954595D01*
X5205405Y-10553435D01*
X5171379Y-10491123D01*
X5168500Y-10464340D01*
X5168500Y-9261866D01*
X5161745Y-9199684D01*
X5110615Y-9063295D01*
X5023261Y-8946739D01*
X4906705Y-8859385D01*
X4770316Y-8808255D01*
X4708134Y-8801500D01*
X2911866Y-8801500D01*
X2849684Y-8808255D01*
X2713295Y-8859385D01*
X2596739Y-8946739D01*
X2509385Y-9063295D01*
X2458255Y-9199684D01*
X2451500Y-9261866D01*
X2451500Y-11058134D01*
X2458255Y-11120316D01*
X2509385Y-11256705D01*
X2596739Y-11373261D01*
X2713295Y-11460615D01*
X2849684Y-11511745D01*
X2911866Y-11518500D01*
X4114340Y-11518500D01*
X4182461Y-11538502D01*
X4203435Y-11555405D01*
X5828557Y-13180528D01*
X5834411Y-13186793D01*
X5872439Y-13230385D01*
X5924729Y-13267136D01*
X5929971Y-13271028D01*
X5980282Y-13310476D01*
X5987201Y-13313600D01*
X5989493Y-13314988D01*
X6004165Y-13323357D01*
X6006525Y-13324622D01*
X6012739Y-13328990D01*
X6019818Y-13331750D01*
X6019820Y-13331751D01*
X6072275Y-13352202D01*
X6078344Y-13354753D01*
X6136573Y-13381045D01*
X6144046Y-13382430D01*
X6146612Y-13383234D01*
X6162835Y-13387855D01*
X6165427Y-13388520D01*
X6172509Y-13391282D01*
X6180044Y-13392274D01*
X6235861Y-13399622D01*
X6242377Y-13400654D01*
X6280770Y-13407770D01*
X6305186Y-13412295D01*
X6312766Y-13411858D01*
X6312767Y-13411858D01*
X6367380Y-13408709D01*
X6374633Y-13408500D01*
X8226088Y-13408500D01*
X8234658Y-13408792D01*
X8284776Y-13412209D01*
X8284780Y-13412209D01*
X8292352Y-13412725D01*
X8299829Y-13411420D01*
X8299830Y-13411420D01*
X8326308Y-13406799D01*
X8355303Y-13401738D01*
X8361821Y-13400777D01*
X8425242Y-13393102D01*
X8432343Y-13390419D01*
X8434952Y-13389778D01*
X8451262Y-13385315D01*
X8453798Y-13384550D01*
X8461284Y-13383243D01*
X8519800Y-13357556D01*
X8525904Y-13355065D01*
X8578548Y-13335173D01*
X8578549Y-13335172D01*
X8585656Y-13332487D01*
X8591919Y-13328183D01*
X8594285Y-13326946D01*
X8609097Y-13318701D01*
X8611351Y-13317368D01*
X8618305Y-13314315D01*
X8669002Y-13275413D01*
X8674332Y-13271541D01*
X8720720Y-13239661D01*
X8720725Y-13239656D01*
X8726981Y-13235357D01*
X8768436Y-13188829D01*
X8773416Y-13183554D01*
X12956566Y-9000405D01*
X13018878Y-8966379D01*
X13045661Y-8963500D01*
X16821812Y-8963500D01*
X16889933Y-8983502D01*
X16936426Y-9037158D01*
X16946530Y-9107432D01*
X16917036Y-9172012D01*
X16910907Y-9178595D01*
X16773802Y-9315700D01*
X16642477Y-9503251D01*
X16640154Y-9508233D01*
X16640151Y-9508238D01*
X16599300Y-9595845D01*
X16545716Y-9710757D01*
X16544294Y-9716065D01*
X16544293Y-9716067D01*
X16523019Y-9795461D01*
X16486457Y-9931913D01*
X16466502Y-10160000D01*
X16486457Y-10388087D01*
X16487881Y-10393402D01*
X16487882Y-10393406D01*
X16498865Y-10434394D01*
X16497177Y-10505371D01*
X16494559Y-10512759D01*
X16492790Y-10517296D01*
X16490247Y-10523344D01*
X16463955Y-10581573D01*
X16462571Y-10589040D01*
X16461770Y-10591595D01*
X16457141Y-10607848D01*
X16456478Y-10610428D01*
X16453718Y-10617509D01*
X16452727Y-10625040D01*
X16452726Y-10625042D01*
X16445379Y-10680852D01*
X16444348Y-10687359D01*
X16432704Y-10750186D01*
X16433141Y-10757766D01*
X16433141Y-10757767D01*
X16436291Y-10812392D01*
X16436500Y-10819646D01*
X16436500Y-20995114D01*
X16416498Y-21063235D01*
X16386153Y-21095874D01*
X16239965Y-21205635D01*
X16214541Y-21232240D01*
X16146280Y-21303671D01*
X16085629Y-21367138D01*
X15978201Y-21524621D01*
X15923293Y-21569621D01*
X15852768Y-21577792D01*
X15789021Y-21546538D01*
X15768324Y-21522054D01*
X15687822Y-21397617D01*
X15687820Y-21397614D01*
X15685014Y-21393277D01*
X15534670Y-21228051D01*
X15530619Y-21224852D01*
X15530615Y-21224848D01*
X15363414Y-21092800D01*
X15363410Y-21092798D01*
X15359359Y-21089598D01*
X15323028Y-21069542D01*
X15257371Y-21033298D01*
X15163789Y-20981638D01*
X15158920Y-20979914D01*
X15158916Y-20979912D01*
X14958087Y-20908795D01*
X14958083Y-20908794D01*
X14953212Y-20907069D01*
X14948119Y-20906162D01*
X14948116Y-20906161D01*
X14738373Y-20868800D01*
X14738367Y-20868799D01*
X14733284Y-20867894D01*
X14659452Y-20866992D01*
X14515081Y-20865228D01*
X14515079Y-20865228D01*
X14509911Y-20865165D01*
X14289091Y-20898955D01*
X14076756Y-20968357D01*
X13878607Y-21071507D01*
X13874474Y-21074610D01*
X13874471Y-21074612D01*
X13704100Y-21202530D01*
X13699965Y-21205635D01*
X13674541Y-21232240D01*
X13606280Y-21303671D01*
X13545629Y-21367138D01*
X13438201Y-21524621D01*
X13383293Y-21569621D01*
X13312768Y-21577792D01*
X13249021Y-21546538D01*
X13228324Y-21522054D01*
X13147822Y-21397617D01*
X13147820Y-21397614D01*
X13145014Y-21393277D01*
X12994670Y-21228051D01*
X12990619Y-21224852D01*
X12990615Y-21224848D01*
X12823414Y-21092800D01*
X12823410Y-21092798D01*
X12819359Y-21089598D01*
X12783028Y-21069542D01*
X12717371Y-21033298D01*
X12623789Y-20981638D01*
X12618920Y-20979914D01*
X12618916Y-20979912D01*
X12418087Y-20908795D01*
X12418083Y-20908794D01*
X12413212Y-20907069D01*
X12408119Y-20906162D01*
X12408116Y-20906161D01*
X12198373Y-20868800D01*
X12198367Y-20868799D01*
X12193284Y-20867894D01*
X12119452Y-20866992D01*
X11975081Y-20865228D01*
X11975079Y-20865228D01*
X11969911Y-20865165D01*
X11749091Y-20898955D01*
X11536756Y-20968357D01*
X11338607Y-21071507D01*
X11334474Y-21074610D01*
X11334471Y-21074612D01*
X11164100Y-21202530D01*
X11159965Y-21205635D01*
X11134541Y-21232240D01*
X11066280Y-21303671D01*
X11005629Y-21367138D01*
X10898201Y-21524621D01*
X10843293Y-21569621D01*
X10772768Y-21577792D01*
X10709021Y-21546538D01*
X10688324Y-21522054D01*
X10607822Y-21397617D01*
X10607820Y-21397614D01*
X10605014Y-21393277D01*
X10454670Y-21228051D01*
X10450619Y-21224852D01*
X10450615Y-21224848D01*
X10283414Y-21092800D01*
X10283410Y-21092798D01*
X10279359Y-21089598D01*
X10243028Y-21069542D01*
X10177371Y-21033298D01*
X10083789Y-20981638D01*
X10078920Y-20979914D01*
X10078916Y-20979912D01*
X9878087Y-20908795D01*
X9878083Y-20908794D01*
X9873212Y-20907069D01*
X9868119Y-20906162D01*
X9868116Y-20906161D01*
X9658373Y-20868800D01*
X9658367Y-20868799D01*
X9653284Y-20867894D01*
X9579452Y-20866992D01*
X9435081Y-20865228D01*
X9435079Y-20865228D01*
X9429911Y-20865165D01*
X9209091Y-20898955D01*
X8996756Y-20968357D01*
X8798607Y-21071507D01*
X8794474Y-21074610D01*
X8794471Y-21074612D01*
X8624100Y-21202530D01*
X8619965Y-21205635D01*
X8594541Y-21232240D01*
X8526280Y-21303671D01*
X8465629Y-21367138D01*
X8358201Y-21524621D01*
X8303293Y-21569621D01*
X8232768Y-21577792D01*
X8169021Y-21546538D01*
X8148324Y-21522054D01*
X8067822Y-21397617D01*
X8067820Y-21397614D01*
X8065014Y-21393277D01*
X7914670Y-21228051D01*
X7910619Y-21224852D01*
X7910615Y-21224848D01*
X7743414Y-21092800D01*
X7743410Y-21092798D01*
X7739359Y-21089598D01*
X7703028Y-21069542D01*
X7637371Y-21033298D01*
X7543789Y-20981638D01*
X7538920Y-20979914D01*
X7538916Y-20979912D01*
X7338087Y-20908795D01*
X7338083Y-20908794D01*
X7333212Y-20907069D01*
X7328119Y-20906162D01*
X7328116Y-20906161D01*
X7118373Y-20868800D01*
X7118367Y-20868799D01*
X7113284Y-20867894D01*
X7039452Y-20866992D01*
X6895081Y-20865228D01*
X6895079Y-20865228D01*
X6889911Y-20865165D01*
X6669091Y-20898955D01*
X6456756Y-20968357D01*
X6258607Y-21071507D01*
X6254474Y-21074610D01*
X6254471Y-21074612D01*
X6084100Y-21202530D01*
X6079965Y-21205635D01*
X6054541Y-21232240D01*
X5986280Y-21303671D01*
X5925629Y-21367138D01*
X5799743Y-21551680D01*
X5705688Y-21754305D01*
X5645989Y-21969570D01*
X5622251Y-22191695D01*
X5635110Y-22414715D01*
X5636247Y-22419761D01*
X5636248Y-22419767D01*
X5647031Y-22467614D01*
X5684222Y-22632639D01*
X5768266Y-22839616D01*
X5805685Y-22900678D01*
X5882291Y-23025688D01*
X5884987Y-23030088D01*
X6031250Y-23198938D01*
X6203126Y-23341632D01*
X6273595Y-23382811D01*
X6276445Y-23384476D01*
X6325169Y-23436114D01*
X6338240Y-23505897D01*
X6311509Y-23571669D01*
X6271055Y-23605027D01*
X6258607Y-23611507D01*
X6254474Y-23614610D01*
X6254471Y-23614612D01*
X6130567Y-23707642D01*
X6079965Y-23745635D01*
X5925629Y-23907138D01*
X5799743Y-24091680D01*
X5705688Y-24294305D01*
X5645989Y-24509570D01*
X5622251Y-24731695D01*
X5622548Y-24736848D01*
X5622548Y-24736851D01*
X5628011Y-24831590D01*
X5635110Y-24954715D01*
X5636247Y-24959761D01*
X5636248Y-24959767D01*
X5656119Y-25047939D01*
X5684222Y-25172639D01*
X5768266Y-25379616D01*
X5819019Y-25462438D01*
X5882291Y-25565688D01*
X5884987Y-25570088D01*
X6031250Y-25738938D01*
X6203126Y-25881632D01*
X6396000Y-25994338D01*
X6604692Y-26074030D01*
X6609760Y-26075061D01*
X6609763Y-26075062D01*
X6717017Y-26096883D01*
X6823597Y-26118567D01*
X6828772Y-26118757D01*
X6828774Y-26118757D01*
X7041673Y-26126564D01*
X7041677Y-26126564D01*
X7046837Y-26126753D01*
X7051957Y-26126097D01*
X7051959Y-26126097D01*
X7263288Y-26099025D01*
X7263289Y-26099025D01*
X7268416Y-26098368D01*
X7273366Y-26096883D01*
X7477429Y-26035661D01*
X7477434Y-26035659D01*
X7482384Y-26034174D01*
X7682994Y-25935896D01*
X7864860Y-25806173D01*
X8023096Y-25648489D01*
X8082594Y-25565689D01*
X8153453Y-25467077D01*
X8154776Y-25468028D01*
X8201645Y-25424857D01*
X8271580Y-25412625D01*
X8337026Y-25440144D01*
X8364875Y-25471994D01*
X8424987Y-25570088D01*
X8571250Y-25738938D01*
X8743126Y-25881632D01*
X8936000Y-25994338D01*
X9144692Y-26074030D01*
X9149760Y-26075061D01*
X9149763Y-26075062D01*
X9257017Y-26096883D01*
X9363597Y-26118567D01*
X9368772Y-26118757D01*
X9368774Y-26118757D01*
X9581673Y-26126564D01*
X9581677Y-26126564D01*
X9586837Y-26126753D01*
X9591957Y-26126097D01*
X9591959Y-26126097D01*
X9803288Y-26099025D01*
X9803289Y-26099025D01*
X9808416Y-26098368D01*
X9813366Y-26096883D01*
X10017429Y-26035661D01*
X10017434Y-26035659D01*
X10022384Y-26034174D01*
X10222994Y-25935896D01*
X10404860Y-25806173D01*
X10563096Y-25648489D01*
X10622594Y-25565689D01*
X10693453Y-25467077D01*
X10694776Y-25468028D01*
X10741645Y-25424857D01*
X10811580Y-25412625D01*
X10877026Y-25440144D01*
X10904875Y-25471994D01*
X10964987Y-25570088D01*
X11111250Y-25738938D01*
X11283126Y-25881632D01*
X11476000Y-25994338D01*
X11684692Y-26074030D01*
X11689760Y-26075061D01*
X11689763Y-26075062D01*
X11797017Y-26096883D01*
X11903597Y-26118567D01*
X11908772Y-26118757D01*
X11908774Y-26118757D01*
X12121673Y-26126564D01*
X12121677Y-26126564D01*
X12126837Y-26126753D01*
X12131957Y-26126097D01*
X12131959Y-26126097D01*
X12343288Y-26099025D01*
X12343289Y-26099025D01*
X12348416Y-26098368D01*
X12353366Y-26096883D01*
X12557429Y-26035661D01*
X12557434Y-26035659D01*
X12562384Y-26034174D01*
X12762994Y-25935896D01*
X12944860Y-25806173D01*
X13103096Y-25648489D01*
X13162594Y-25565689D01*
X13233453Y-25467077D01*
X13234776Y-25468028D01*
X13281645Y-25424857D01*
X13351580Y-25412625D01*
X13417026Y-25440144D01*
X13444875Y-25471994D01*
X13504987Y-25570088D01*
X13651250Y-25738938D01*
X13823126Y-25881632D01*
X14016000Y-25994338D01*
X14224692Y-26074030D01*
X14229760Y-26075061D01*
X14229763Y-26075062D01*
X14337017Y-26096883D01*
X14443597Y-26118567D01*
X14448772Y-26118757D01*
X14448774Y-26118757D01*
X14661673Y-26126564D01*
X14661677Y-26126564D01*
X14666837Y-26126753D01*
X14671957Y-26126097D01*
X14671959Y-26126097D01*
X14883288Y-26099025D01*
X14883289Y-26099025D01*
X14888416Y-26098368D01*
X14893366Y-26096883D01*
X15097429Y-26035661D01*
X15097434Y-26035659D01*
X15102384Y-26034174D01*
X15302994Y-25935896D01*
X15484860Y-25806173D01*
X15643096Y-25648489D01*
X15702594Y-25565689D01*
X15773453Y-25467077D01*
X15774776Y-25468028D01*
X15821645Y-25424857D01*
X15891580Y-25412625D01*
X15957026Y-25440144D01*
X15984875Y-25471994D01*
X16044987Y-25570088D01*
X16191250Y-25738938D01*
X16363126Y-25881632D01*
X16556000Y-25994338D01*
X16764692Y-26074030D01*
X16769760Y-26075061D01*
X16769763Y-26075062D01*
X16877017Y-26096883D01*
X16983597Y-26118567D01*
X16988772Y-26118757D01*
X16988774Y-26118757D01*
X17201673Y-26126564D01*
X17201677Y-26126564D01*
X17206837Y-26126753D01*
X17211957Y-26126097D01*
X17211959Y-26126097D01*
X17423288Y-26099025D01*
X17423289Y-26099025D01*
X17428416Y-26098368D01*
X17433366Y-26096883D01*
X17637429Y-26035661D01*
X17637434Y-26035659D01*
X17642384Y-26034174D01*
X17842994Y-25935896D01*
X18024860Y-25806173D01*
X18183096Y-25648489D01*
X18242594Y-25565689D01*
X18313453Y-25467077D01*
X18314776Y-25468028D01*
X18361645Y-25424857D01*
X18431580Y-25412625D01*
X18497026Y-25440144D01*
X18524875Y-25471994D01*
X18584987Y-25570088D01*
X18731250Y-25738938D01*
X18903126Y-25881632D01*
X19096000Y-25994338D01*
X19304692Y-26074030D01*
X19309760Y-26075061D01*
X19309763Y-26075062D01*
X19417017Y-26096883D01*
X19523597Y-26118567D01*
X19528772Y-26118757D01*
X19528774Y-26118757D01*
X19741673Y-26126564D01*
X19741677Y-26126564D01*
X19746837Y-26126753D01*
X19751957Y-26126097D01*
X19751959Y-26126097D01*
X19963288Y-26099025D01*
X19963289Y-26099025D01*
X19968416Y-26098368D01*
X19973366Y-26096883D01*
X20177429Y-26035661D01*
X20177434Y-26035659D01*
X20182384Y-26034174D01*
X20382994Y-25935896D01*
X20564860Y-25806173D01*
X20723096Y-25648489D01*
X20782594Y-25565689D01*
X20853453Y-25467077D01*
X20854776Y-25468028D01*
X20901645Y-25424857D01*
X20971580Y-25412625D01*
X21037026Y-25440144D01*
X21064875Y-25471994D01*
X21124987Y-25570088D01*
X21271250Y-25738938D01*
X21443126Y-25881632D01*
X21636000Y-25994338D01*
X21844692Y-26074030D01*
X21849760Y-26075061D01*
X21849763Y-26075062D01*
X21957017Y-26096883D01*
X22063597Y-26118567D01*
X22068772Y-26118757D01*
X22068774Y-26118757D01*
X22281673Y-26126564D01*
X22281677Y-26126564D01*
X22286837Y-26126753D01*
X22291957Y-26126097D01*
X22291959Y-26126097D01*
X22503288Y-26099025D01*
X22503289Y-26099025D01*
X22508416Y-26098368D01*
X22513366Y-26096883D01*
X22717429Y-26035661D01*
X22717434Y-26035659D01*
X22722384Y-26034174D01*
X22922994Y-25935896D01*
X23104860Y-25806173D01*
X23263096Y-25648489D01*
X23322594Y-25565689D01*
X23393453Y-25467077D01*
X23394776Y-25468028D01*
X23441645Y-25424857D01*
X23511580Y-25412625D01*
X23577026Y-25440144D01*
X23604875Y-25471994D01*
X23664987Y-25570088D01*
X23811250Y-25738938D01*
X23983126Y-25881632D01*
X24176000Y-25994338D01*
X24384692Y-26074030D01*
X24389760Y-26075061D01*
X24389763Y-26075062D01*
X24497017Y-26096883D01*
X24603597Y-26118567D01*
X24608772Y-26118757D01*
X24608774Y-26118757D01*
X24821673Y-26126564D01*
X24821677Y-26126564D01*
X24826837Y-26126753D01*
X24831957Y-26126097D01*
X24831959Y-26126097D01*
X25043288Y-26099025D01*
X25043289Y-26099025D01*
X25048416Y-26098368D01*
X25053366Y-26096883D01*
X25257429Y-26035661D01*
X25257434Y-26035659D01*
X25262384Y-26034174D01*
X25462994Y-25935896D01*
X25644860Y-25806173D01*
X25803096Y-25648489D01*
X25862594Y-25565689D01*
X25933453Y-25467077D01*
X25934776Y-25468028D01*
X25981645Y-25424857D01*
X26051580Y-25412625D01*
X26117026Y-25440144D01*
X26144875Y-25471994D01*
X26204987Y-25570088D01*
X26351250Y-25738938D01*
X26523126Y-25881632D01*
X26716000Y-25994338D01*
X26924692Y-26074030D01*
X26929760Y-26075061D01*
X26929763Y-26075062D01*
X27037017Y-26096883D01*
X27143597Y-26118567D01*
X27148772Y-26118757D01*
X27148774Y-26118757D01*
X27361673Y-26126564D01*
X27361677Y-26126564D01*
X27366837Y-26126753D01*
X27371957Y-26126097D01*
X27371959Y-26126097D01*
X27583288Y-26099025D01*
X27583289Y-26099025D01*
X27588416Y-26098368D01*
X27593366Y-26096883D01*
X27797429Y-26035661D01*
X27797434Y-26035659D01*
X27802384Y-26034174D01*
X28002994Y-25935896D01*
X28184860Y-25806173D01*
X28343096Y-25648489D01*
X28402594Y-25565689D01*
X28473453Y-25467077D01*
X28474776Y-25468028D01*
X28521645Y-25424857D01*
X28591580Y-25412625D01*
X28657026Y-25440144D01*
X28684875Y-25471994D01*
X28744987Y-25570088D01*
X28891250Y-25738938D01*
X29063126Y-25881632D01*
X29256000Y-25994338D01*
X29464692Y-26074030D01*
X29469760Y-26075061D01*
X29469763Y-26075062D01*
X29577017Y-26096883D01*
X29683597Y-26118567D01*
X29688772Y-26118757D01*
X29688774Y-26118757D01*
X29901673Y-26126564D01*
X29901677Y-26126564D01*
X29906837Y-26126753D01*
X29911957Y-26126097D01*
X29911959Y-26126097D01*
X30123288Y-26099025D01*
X30123289Y-26099025D01*
X30128416Y-26098368D01*
X30133366Y-26096883D01*
X30337429Y-26035661D01*
X30337434Y-26035659D01*
X30342384Y-26034174D01*
X30542994Y-25935896D01*
X30724860Y-25806173D01*
X30883096Y-25648489D01*
X30942594Y-25565689D01*
X31013453Y-25467077D01*
X31014776Y-25468028D01*
X31061645Y-25424857D01*
X31131580Y-25412625D01*
X31197026Y-25440144D01*
X31224875Y-25471994D01*
X31284987Y-25570088D01*
X31431250Y-25738938D01*
X31603126Y-25881632D01*
X31796000Y-25994338D01*
X32004692Y-26074030D01*
X32009760Y-26075061D01*
X32009763Y-26075062D01*
X32117017Y-26096883D01*
X32223597Y-26118567D01*
X32228772Y-26118757D01*
X32228774Y-26118757D01*
X32441673Y-26126564D01*
X32441677Y-26126564D01*
X32446837Y-26126753D01*
X32451957Y-26126097D01*
X32451959Y-26126097D01*
X32663288Y-26099025D01*
X32663289Y-26099025D01*
X32668416Y-26098368D01*
X32673366Y-26096883D01*
X32877429Y-26035661D01*
X32877434Y-26035659D01*
X32882384Y-26034174D01*
X33082994Y-25935896D01*
X33264860Y-25806173D01*
X33423096Y-25648489D01*
X33482594Y-25565689D01*
X33553453Y-25467077D01*
X33554776Y-25468028D01*
X33601645Y-25424857D01*
X33671580Y-25412625D01*
X33737026Y-25440144D01*
X33764875Y-25471994D01*
X33824987Y-25570088D01*
X33971250Y-25738938D01*
X34143126Y-25881632D01*
X34336000Y-25994338D01*
X34544692Y-26074030D01*
X34549760Y-26075061D01*
X34549763Y-26075062D01*
X34657017Y-26096883D01*
X34763597Y-26118567D01*
X34768772Y-26118757D01*
X34768774Y-26118757D01*
X34981673Y-26126564D01*
X34981677Y-26126564D01*
X34986837Y-26126753D01*
X34991957Y-26126097D01*
X34991959Y-26126097D01*
X35203288Y-26099025D01*
X35203289Y-26099025D01*
X35208416Y-26098368D01*
X35213366Y-26096883D01*
X35417429Y-26035661D01*
X35417434Y-26035659D01*
X35422384Y-26034174D01*
X35622994Y-25935896D01*
X35804860Y-25806173D01*
X35963096Y-25648489D01*
X36022594Y-25565689D01*
X36093453Y-25467077D01*
X36094776Y-25468028D01*
X36141645Y-25424857D01*
X36211580Y-25412625D01*
X36277026Y-25440144D01*
X36304875Y-25471994D01*
X36364987Y-25570088D01*
X36511250Y-25738938D01*
X36683126Y-25881632D01*
X36876000Y-25994338D01*
X37084692Y-26074030D01*
X37089760Y-26075061D01*
X37089763Y-26075062D01*
X37197017Y-26096883D01*
X37303597Y-26118567D01*
X37308772Y-26118757D01*
X37308774Y-26118757D01*
X37521673Y-26126564D01*
X37521677Y-26126564D01*
X37526837Y-26126753D01*
X37531957Y-26126097D01*
X37531959Y-26126097D01*
X37743288Y-26099025D01*
X37743289Y-26099025D01*
X37748416Y-26098368D01*
X37753366Y-26096883D01*
X37957429Y-26035661D01*
X37957434Y-26035659D01*
X37962384Y-26034174D01*
X38162994Y-25935896D01*
X38344860Y-25806173D01*
X38503096Y-25648489D01*
X38562594Y-25565689D01*
X38633453Y-25467077D01*
X38634776Y-25468028D01*
X38681645Y-25424857D01*
X38751580Y-25412625D01*
X38817026Y-25440144D01*
X38844875Y-25471994D01*
X38904987Y-25570088D01*
X39051250Y-25738938D01*
X39223126Y-25881632D01*
X39416000Y-25994338D01*
X39624692Y-26074030D01*
X39629760Y-26075061D01*
X39629763Y-26075062D01*
X39737017Y-26096883D01*
X39843597Y-26118567D01*
X39848772Y-26118757D01*
X39848774Y-26118757D01*
X40061673Y-26126564D01*
X40061677Y-26126564D01*
X40066837Y-26126753D01*
X40071957Y-26126097D01*
X40071959Y-26126097D01*
X40283288Y-26099025D01*
X40283289Y-26099025D01*
X40288416Y-26098368D01*
X40293366Y-26096883D01*
X40497429Y-26035661D01*
X40497434Y-26035659D01*
X40502384Y-26034174D01*
X40702994Y-25935896D01*
X40884860Y-25806173D01*
X41043096Y-25648489D01*
X41102594Y-25565689D01*
X41173453Y-25467077D01*
X41174776Y-25468028D01*
X41221645Y-25424857D01*
X41291580Y-25412625D01*
X41357026Y-25440144D01*
X41384875Y-25471994D01*
X41444987Y-25570088D01*
X41591250Y-25738938D01*
X41763126Y-25881632D01*
X41956000Y-25994338D01*
X42164692Y-26074030D01*
X42169760Y-26075061D01*
X42169763Y-26075062D01*
X42277017Y-26096883D01*
X42383597Y-26118567D01*
X42388772Y-26118757D01*
X42388774Y-26118757D01*
X42601673Y-26126564D01*
X42601677Y-26126564D01*
X42606837Y-26126753D01*
X42611957Y-26126097D01*
X42611959Y-26126097D01*
X42823288Y-26099025D01*
X42823289Y-26099025D01*
X42828416Y-26098368D01*
X42833366Y-26096883D01*
X43037429Y-26035661D01*
X43037434Y-26035659D01*
X43042384Y-26034174D01*
X43242994Y-25935896D01*
X43424860Y-25806173D01*
X43583096Y-25648489D01*
X43642594Y-25565689D01*
X43713453Y-25467077D01*
X43714776Y-25468028D01*
X43761645Y-25424857D01*
X43831580Y-25412625D01*
X43897026Y-25440144D01*
X43924875Y-25471994D01*
X43984987Y-25570088D01*
X44131250Y-25738938D01*
X44303126Y-25881632D01*
X44496000Y-25994338D01*
X44704692Y-26074030D01*
X44709760Y-26075061D01*
X44709763Y-26075062D01*
X44817017Y-26096883D01*
X44923597Y-26118567D01*
X44928772Y-26118757D01*
X44928774Y-26118757D01*
X45141673Y-26126564D01*
X45141677Y-26126564D01*
X45146837Y-26126753D01*
X45151957Y-26126097D01*
X45151959Y-26126097D01*
X45363288Y-26099025D01*
X45363289Y-26099025D01*
X45368416Y-26098368D01*
X45373366Y-26096883D01*
X45577429Y-26035661D01*
X45577434Y-26035659D01*
X45582384Y-26034174D01*
X45782994Y-25935896D01*
X45964860Y-25806173D01*
X46123096Y-25648489D01*
X46182594Y-25565689D01*
X46253453Y-25467077D01*
X46254776Y-25468028D01*
X46301645Y-25424857D01*
X46371580Y-25412625D01*
X46437026Y-25440144D01*
X46464875Y-25471994D01*
X46524987Y-25570088D01*
X46671250Y-25738938D01*
X46843126Y-25881632D01*
X47036000Y-25994338D01*
X47244692Y-26074030D01*
X47249760Y-26075061D01*
X47249763Y-26075062D01*
X47357017Y-26096883D01*
X47463597Y-26118567D01*
X47468772Y-26118757D01*
X47468774Y-26118757D01*
X47681673Y-26126564D01*
X47681677Y-26126564D01*
X47686837Y-26126753D01*
X47691957Y-26126097D01*
X47691959Y-26126097D01*
X47903288Y-26099025D01*
X47903289Y-26099025D01*
X47908416Y-26098368D01*
X47913366Y-26096883D01*
X48117429Y-26035661D01*
X48117434Y-26035659D01*
X48122384Y-26034174D01*
X48322994Y-25935896D01*
X48504860Y-25806173D01*
X48663096Y-25648489D01*
X48722594Y-25565689D01*
X48793453Y-25467077D01*
X48794776Y-25468028D01*
X48841645Y-25424857D01*
X48911580Y-25412625D01*
X48977026Y-25440144D01*
X49004875Y-25471994D01*
X49064987Y-25570088D01*
X49211250Y-25738938D01*
X49383126Y-25881632D01*
X49576000Y-25994338D01*
X49784692Y-26074030D01*
X49789760Y-26075061D01*
X49789763Y-26075062D01*
X49897017Y-26096883D01*
X50003597Y-26118567D01*
X50008772Y-26118757D01*
X50008774Y-26118757D01*
X50221673Y-26126564D01*
X50221677Y-26126564D01*
X50226837Y-26126753D01*
X50231957Y-26126097D01*
X50231959Y-26126097D01*
X50443288Y-26099025D01*
X50443289Y-26099025D01*
X50448416Y-26098368D01*
X50453366Y-26096883D01*
X50657429Y-26035661D01*
X50657434Y-26035659D01*
X50662384Y-26034174D01*
X50862994Y-25935896D01*
X51044860Y-25806173D01*
X51203096Y-25648489D01*
X51262594Y-25565689D01*
X51333453Y-25467077D01*
X51334776Y-25468028D01*
X51381645Y-25424857D01*
X51451580Y-25412625D01*
X51517026Y-25440144D01*
X51544875Y-25471994D01*
X51604987Y-25570088D01*
X51751250Y-25738938D01*
X51923126Y-25881632D01*
X52116000Y-25994338D01*
X52324692Y-26074030D01*
X52329760Y-26075061D01*
X52329763Y-26075062D01*
X52437017Y-26096883D01*
X52543597Y-26118567D01*
X52548772Y-26118757D01*
X52548774Y-26118757D01*
X52761673Y-26126564D01*
X52761677Y-26126564D01*
X52766837Y-26126753D01*
X52771957Y-26126097D01*
X52771959Y-26126097D01*
X52983288Y-26099025D01*
X52983289Y-26099025D01*
X52988416Y-26098368D01*
X52993366Y-26096883D01*
X53197429Y-26035661D01*
X53197434Y-26035659D01*
X53202384Y-26034174D01*
X53402994Y-25935896D01*
X53584860Y-25806173D01*
X53743096Y-25648489D01*
X53802594Y-25565689D01*
X53873453Y-25467077D01*
X53874776Y-25468028D01*
X53921645Y-25424857D01*
X53991580Y-25412625D01*
X54057026Y-25440144D01*
X54084875Y-25471994D01*
X54144987Y-25570088D01*
X54291250Y-25738938D01*
X54463126Y-25881632D01*
X54656000Y-25994338D01*
X54864692Y-26074030D01*
X54869760Y-26075061D01*
X54869763Y-26075062D01*
X54977017Y-26096883D01*
X55083597Y-26118567D01*
X55088772Y-26118757D01*
X55088774Y-26118757D01*
X55301673Y-26126564D01*
X55301677Y-26126564D01*
X55306837Y-26126753D01*
X55311957Y-26126097D01*
X55311959Y-26126097D01*
X55523288Y-26099025D01*
X55523289Y-26099025D01*
X55528416Y-26098368D01*
X55533366Y-26096883D01*
X55737429Y-26035661D01*
X55737434Y-26035659D01*
X55742384Y-26034174D01*
X55942994Y-25935896D01*
X56124860Y-25806173D01*
X56283096Y-25648489D01*
X56342594Y-25565689D01*
X56410435Y-25471277D01*
X56413453Y-25467077D01*
X56434320Y-25424857D01*
X56510136Y-25271453D01*
X56510137Y-25271451D01*
X56512430Y-25266811D01*
X56577370Y-25053069D01*
X56606529Y-24831590D01*
X56608156Y-24765000D01*
X56589852Y-24542361D01*
X56535431Y-24325702D01*
X56446354Y-24120840D01*
X56325014Y-23933277D01*
X56321532Y-23929450D01*
X56177798Y-23771488D01*
X56146746Y-23707642D01*
X56155141Y-23637143D01*
X56200317Y-23582375D01*
X56226761Y-23568706D01*
X56333297Y-23528767D01*
X56341705Y-23525615D01*
X56458261Y-23438261D01*
X56545615Y-23321705D01*
X56596745Y-23185316D01*
X56603500Y-23123134D01*
X56603500Y-21326866D01*
X56596745Y-21264684D01*
X56545615Y-21128295D01*
X56458261Y-21011739D01*
X56341705Y-20924385D01*
X56205316Y-20873255D01*
X56143134Y-20866500D01*
X54346866Y-20866500D01*
X54284684Y-20873255D01*
X54148295Y-20924385D01*
X54031739Y-21011739D01*
X53944385Y-21128295D01*
X53941233Y-21136703D01*
X53899919Y-21246907D01*
X53857277Y-21303671D01*
X53790716Y-21328371D01*
X53721367Y-21313163D01*
X53688743Y-21287476D01*
X53638151Y-21231875D01*
X53638142Y-21231866D01*
X53634670Y-21228051D01*
X53630619Y-21224852D01*
X53630615Y-21224848D01*
X53463414Y-21092800D01*
X53463410Y-21092798D01*
X53459359Y-21089598D01*
X53423028Y-21069542D01*
X53357371Y-21033298D01*
X53263789Y-20981638D01*
X53258920Y-20979914D01*
X53258916Y-20979912D01*
X53058087Y-20908795D01*
X53058083Y-20908794D01*
X53053212Y-20907069D01*
X53048119Y-20906162D01*
X53048116Y-20906161D01*
X52838373Y-20868800D01*
X52838367Y-20868799D01*
X52833284Y-20867894D01*
X52759452Y-20866992D01*
X52615081Y-20865228D01*
X52615079Y-20865228D01*
X52609911Y-20865165D01*
X52389091Y-20898955D01*
X52176756Y-20968357D01*
X51978607Y-21071507D01*
X51974474Y-21074610D01*
X51974471Y-21074612D01*
X51804100Y-21202530D01*
X51799965Y-21205635D01*
X51774541Y-21232240D01*
X51706280Y-21303671D01*
X51645629Y-21367138D01*
X51538201Y-21524621D01*
X51483293Y-21569621D01*
X51412768Y-21577792D01*
X51349021Y-21546538D01*
X51328324Y-21522054D01*
X51247822Y-21397617D01*
X51247820Y-21397614D01*
X51245014Y-21393277D01*
X51094670Y-21228051D01*
X51090619Y-21224852D01*
X51090615Y-21224848D01*
X50923414Y-21092800D01*
X50923410Y-21092798D01*
X50919359Y-21089598D01*
X50883028Y-21069542D01*
X50817371Y-21033298D01*
X50723789Y-20981638D01*
X50718920Y-20979914D01*
X50718916Y-20979912D01*
X50518087Y-20908795D01*
X50518083Y-20908794D01*
X50513212Y-20907069D01*
X50508119Y-20906162D01*
X50508116Y-20906161D01*
X50298373Y-20868800D01*
X50298367Y-20868799D01*
X50293284Y-20867894D01*
X50219452Y-20866992D01*
X50075081Y-20865228D01*
X50075079Y-20865228D01*
X50069911Y-20865165D01*
X49849091Y-20898955D01*
X49636756Y-20968357D01*
X49438607Y-21071507D01*
X49434474Y-21074610D01*
X49434471Y-21074612D01*
X49264100Y-21202530D01*
X49259965Y-21205635D01*
X49234541Y-21232240D01*
X49166280Y-21303671D01*
X49105629Y-21367138D01*
X48998201Y-21524621D01*
X48943293Y-21569621D01*
X48872768Y-21577792D01*
X48809021Y-21546538D01*
X48788324Y-21522054D01*
X48707822Y-21397617D01*
X48707820Y-21397614D01*
X48705014Y-21393277D01*
X48554670Y-21228051D01*
X48550619Y-21224852D01*
X48550615Y-21224848D01*
X48383414Y-21092800D01*
X48383410Y-21092798D01*
X48379359Y-21089598D01*
X48343028Y-21069542D01*
X48277371Y-21033298D01*
X48183789Y-20981638D01*
X48178920Y-20979914D01*
X48178916Y-20979912D01*
X47978087Y-20908795D01*
X47978083Y-20908794D01*
X47973212Y-20907069D01*
X47968119Y-20906162D01*
X47968116Y-20906161D01*
X47758373Y-20868800D01*
X47758367Y-20868799D01*
X47753284Y-20867894D01*
X47679452Y-20866992D01*
X47535081Y-20865228D01*
X47535079Y-20865228D01*
X47529911Y-20865165D01*
X47309091Y-20898955D01*
X47096756Y-20968357D01*
X46898607Y-21071507D01*
X46894474Y-21074610D01*
X46894471Y-21074612D01*
X46724100Y-21202530D01*
X46719965Y-21205635D01*
X46694541Y-21232240D01*
X46626280Y-21303671D01*
X46565629Y-21367138D01*
X46458201Y-21524621D01*
X46403293Y-21569621D01*
X46332768Y-21577792D01*
X46269021Y-21546538D01*
X46248324Y-21522054D01*
X46167822Y-21397617D01*
X46167820Y-21397614D01*
X46165014Y-21393277D01*
X46014670Y-21228051D01*
X46010619Y-21224852D01*
X46010615Y-21224848D01*
X45843414Y-21092800D01*
X45843410Y-21092798D01*
X45839359Y-21089598D01*
X45803028Y-21069542D01*
X45737371Y-21033298D01*
X45643789Y-20981638D01*
X45638920Y-20979914D01*
X45638916Y-20979912D01*
X45438087Y-20908795D01*
X45438083Y-20908794D01*
X45433212Y-20907069D01*
X45428119Y-20906162D01*
X45428116Y-20906161D01*
X45218373Y-20868800D01*
X45218367Y-20868799D01*
X45213284Y-20867894D01*
X45139452Y-20866992D01*
X44995081Y-20865228D01*
X44995079Y-20865228D01*
X44989911Y-20865165D01*
X44769091Y-20898955D01*
X44556756Y-20968357D01*
X44358607Y-21071507D01*
X44354474Y-21074610D01*
X44354471Y-21074612D01*
X44184100Y-21202530D01*
X44179965Y-21205635D01*
X44154541Y-21232240D01*
X44086280Y-21303671D01*
X44025629Y-21367138D01*
X43918201Y-21524621D01*
X43863293Y-21569621D01*
X43792768Y-21577792D01*
X43729021Y-21546538D01*
X43708324Y-21522054D01*
X43627822Y-21397617D01*
X43627820Y-21397614D01*
X43625014Y-21393277D01*
X43474670Y-21228051D01*
X43470619Y-21224852D01*
X43470615Y-21224848D01*
X43303414Y-21092800D01*
X43303410Y-21092798D01*
X43299359Y-21089598D01*
X43263028Y-21069542D01*
X43197371Y-21033298D01*
X43103789Y-20981638D01*
X43098920Y-20979914D01*
X43098916Y-20979912D01*
X42898087Y-20908795D01*
X42898083Y-20908794D01*
X42893212Y-20907069D01*
X42888119Y-20906162D01*
X42888116Y-20906161D01*
X42678373Y-20868800D01*
X42678367Y-20868799D01*
X42673284Y-20867894D01*
X42599452Y-20866992D01*
X42455081Y-20865228D01*
X42455079Y-20865228D01*
X42449911Y-20865165D01*
X42229091Y-20898955D01*
X42016756Y-20968357D01*
X41818607Y-21071507D01*
X41814474Y-21074610D01*
X41814471Y-21074612D01*
X41644100Y-21202530D01*
X41639965Y-21205635D01*
X41614541Y-21232240D01*
X41546280Y-21303671D01*
X41485629Y-21367138D01*
X41378201Y-21524621D01*
X41323293Y-21569621D01*
X41252768Y-21577792D01*
X41189021Y-21546538D01*
X41168324Y-21522054D01*
X41087822Y-21397617D01*
X41087820Y-21397614D01*
X41085014Y-21393277D01*
X40934670Y-21228051D01*
X40930619Y-21224852D01*
X40930615Y-21224848D01*
X40763414Y-21092800D01*
X40763410Y-21092798D01*
X40759359Y-21089598D01*
X40723028Y-21069542D01*
X40657371Y-21033298D01*
X40563789Y-20981638D01*
X40558920Y-20979914D01*
X40558916Y-20979912D01*
X40358087Y-20908795D01*
X40358083Y-20908794D01*
X40353212Y-20907069D01*
X40348119Y-20906162D01*
X40348116Y-20906161D01*
X40138373Y-20868800D01*
X40138367Y-20868799D01*
X40133284Y-20867894D01*
X40126801Y-20867815D01*
X40126290Y-20867658D01*
X40122961Y-20867343D01*
X40123026Y-20866656D01*
X40058930Y-20846985D01*
X40013093Y-20792767D01*
X40003846Y-20722375D01*
X40034123Y-20658158D01*
X40039241Y-20652729D01*
X43660520Y-17031450D01*
X43666785Y-17025596D01*
X43704660Y-16992555D01*
X43710385Y-16987561D01*
X43747114Y-16935300D01*
X43751046Y-16930005D01*
X43785791Y-16885694D01*
X43790477Y-16879718D01*
X43793602Y-16872796D01*
X43794964Y-16870548D01*
X43803368Y-16855815D01*
X43804622Y-16853476D01*
X43808990Y-16847261D01*
X43811749Y-16840185D01*
X43811751Y-16840181D01*
X43832202Y-16787726D01*
X43834758Y-16781646D01*
X43857918Y-16730351D01*
X43861045Y-16723426D01*
X43862429Y-16715955D01*
X43863230Y-16713401D01*
X43867867Y-16697122D01*
X43868523Y-16694567D01*
X43871282Y-16687491D01*
X43879621Y-16624149D01*
X43880653Y-16617633D01*
X43890912Y-16562280D01*
X43892296Y-16554813D01*
X43888709Y-16492602D01*
X43888500Y-16485349D01*
X43888500Y-11326878D01*
X43908502Y-11258757D01*
X43942229Y-11223665D01*
X44019789Y-11169357D01*
X44019792Y-11169355D01*
X44024300Y-11166198D01*
X44186198Y-11004300D01*
X44243665Y-10922229D01*
X44299122Y-10877901D01*
X44346878Y-10868500D01*
X44553122Y-10868500D01*
X44621243Y-10888502D01*
X44656335Y-10922229D01*
X44713802Y-11004300D01*
X44875700Y-11166198D01*
X44880208Y-11169355D01*
X44880211Y-11169357D01*
X44947177Y-11216247D01*
X45063251Y-11297523D01*
X45068233Y-11299846D01*
X45068238Y-11299849D01*
X45237212Y-11378642D01*
X45270757Y-11394284D01*
X45276065Y-11395706D01*
X45276067Y-11395707D01*
X45486598Y-11452119D01*
X45486600Y-11452119D01*
X45491913Y-11453543D01*
X45720000Y-11473498D01*
X45948087Y-11453543D01*
X45953400Y-11452119D01*
X45953402Y-11452119D01*
X46163933Y-11395707D01*
X46163935Y-11395706D01*
X46169243Y-11394284D01*
X46202788Y-11378642D01*
X46371762Y-11299849D01*
X46371767Y-11299846D01*
X46376749Y-11297523D01*
X46492823Y-11216247D01*
X46559789Y-11169357D01*
X46559792Y-11169355D01*
X46564300Y-11166198D01*
X46726198Y-11004300D01*
X46857523Y-10816749D01*
X46859846Y-10811767D01*
X46859849Y-10811762D01*
X46951961Y-10614225D01*
X46951961Y-10614224D01*
X46954284Y-10609243D01*
X46974976Y-10532022D01*
X47012119Y-10393402D01*
X47012119Y-10393400D01*
X47013543Y-10388087D01*
X47033498Y-10160000D01*
X47013543Y-9931913D01*
X46976981Y-9795461D01*
X46955707Y-9716067D01*
X46955706Y-9716065D01*
X46954284Y-9710757D01*
X46900700Y-9595845D01*
X46859849Y-9508238D01*
X46859846Y-9508233D01*
X46857523Y-9503251D01*
X46726198Y-9315700D01*
X46564300Y-9153802D01*
X46559792Y-9150645D01*
X46559789Y-9150643D01*
X46433920Y-9062509D01*
X46376749Y-9022477D01*
X46371767Y-9020154D01*
X46371762Y-9020151D01*
X46174225Y-8928039D01*
X46174224Y-8928039D01*
X46169243Y-8925716D01*
X46163935Y-8924294D01*
X46163933Y-8924293D01*
X45953402Y-8867881D01*
X45953400Y-8867881D01*
X45948087Y-8866457D01*
X45720000Y-8846502D01*
X45491913Y-8866457D01*
X45486600Y-8867881D01*
X45486598Y-8867881D01*
X45276067Y-8924293D01*
X45276065Y-8924294D01*
X45270757Y-8925716D01*
X45265776Y-8928039D01*
X45265775Y-8928039D01*
X45068238Y-9020151D01*
X45068233Y-9020154D01*
X45063251Y-9022477D01*
X45006080Y-9062509D01*
X44880211Y-9150643D01*
X44880208Y-9150645D01*
X44875700Y-9153802D01*
X44713802Y-9315700D01*
X44710645Y-9320208D01*
X44710643Y-9320211D01*
X44656335Y-9397771D01*
X44600878Y-9442099D01*
X44553122Y-9451500D01*
X44346878Y-9451500D01*
X44278757Y-9431498D01*
X44243665Y-9397771D01*
X44189357Y-9320211D01*
X44189355Y-9320208D01*
X44186198Y-9315700D01*
X44024300Y-9153802D01*
X44019792Y-9150645D01*
X44019789Y-9150643D01*
X43893920Y-9062509D01*
X43836749Y-9022477D01*
X43831767Y-9020154D01*
X43831762Y-9020151D01*
X43634225Y-8928039D01*
X43634224Y-8928039D01*
X43629243Y-8925716D01*
X43623935Y-8924294D01*
X43623933Y-8924293D01*
X43413402Y-8867881D01*
X43413400Y-8867881D01*
X43408087Y-8866457D01*
X43180000Y-8846502D01*
X42951913Y-8866457D01*
X42946600Y-8867881D01*
X42946598Y-8867881D01*
X42736067Y-8924293D01*
X42736065Y-8924294D01*
X42730757Y-8925716D01*
X42725776Y-8928039D01*
X42725775Y-8928039D01*
X42528238Y-9020151D01*
X42528233Y-9020154D01*
X42523251Y-9022477D01*
X42466080Y-9062509D01*
X42340211Y-9150643D01*
X42340208Y-9150645D01*
X42335700Y-9153802D01*
X42173802Y-9315700D01*
X42042477Y-9503251D01*
X42040154Y-9508233D01*
X42040151Y-9508238D01*
X41999300Y-9595845D01*
X41945716Y-9710757D01*
X41944294Y-9716065D01*
X41944293Y-9716067D01*
X41923019Y-9795461D01*
X41886457Y-9931913D01*
X41866502Y-10160000D01*
X41886457Y-10388087D01*
X41887881Y-10393400D01*
X41887881Y-10393402D01*
X41925025Y-10532022D01*
X41945716Y-10609243D01*
X41948039Y-10614224D01*
X41948039Y-10614225D01*
X42040151Y-10811762D01*
X42040154Y-10811767D01*
X42042477Y-10816749D01*
X42173802Y-11004300D01*
X42335700Y-11166198D01*
X42340208Y-11169355D01*
X42340211Y-11169357D01*
X42417771Y-11223665D01*
X42462099Y-11279122D01*
X42471500Y-11326878D01*
X42471500Y-16164339D01*
X42451498Y-16232460D01*
X42434595Y-16253434D01*
X37832316Y-20855714D01*
X37770004Y-20889740D01*
X37721125Y-20890666D01*
X37598373Y-20868800D01*
X37598367Y-20868799D01*
X37593284Y-20867894D01*
X37519452Y-20866992D01*
X37375081Y-20865228D01*
X37375079Y-20865228D01*
X37369911Y-20865165D01*
X37149091Y-20898955D01*
X36936756Y-20968357D01*
X36738607Y-21071507D01*
X36734474Y-21074610D01*
X36734471Y-21074612D01*
X36564100Y-21202530D01*
X36559965Y-21205635D01*
X36534541Y-21232240D01*
X36466280Y-21303671D01*
X36405629Y-21367138D01*
X36298201Y-21524621D01*
X36243293Y-21569621D01*
X36172768Y-21577792D01*
X36109021Y-21546538D01*
X36088324Y-21522054D01*
X36007822Y-21397617D01*
X36007820Y-21397614D01*
X36005014Y-21393277D01*
X35854670Y-21228051D01*
X35850619Y-21224852D01*
X35850615Y-21224848D01*
X35683414Y-21092800D01*
X35683410Y-21092798D01*
X35679359Y-21089598D01*
X35643028Y-21069542D01*
X35577371Y-21033298D01*
X35483789Y-20981638D01*
X35478920Y-20979914D01*
X35478916Y-20979912D01*
X35278087Y-20908795D01*
X35278083Y-20908794D01*
X35273212Y-20907069D01*
X35268119Y-20906162D01*
X35268116Y-20906161D01*
X35058373Y-20868800D01*
X35058367Y-20868799D01*
X35053284Y-20867894D01*
X34979452Y-20866992D01*
X34835081Y-20865228D01*
X34835079Y-20865228D01*
X34829911Y-20865165D01*
X34609091Y-20898955D01*
X34396756Y-20968357D01*
X34198607Y-21071507D01*
X34194474Y-21074610D01*
X34194471Y-21074612D01*
X34024100Y-21202530D01*
X34019965Y-21205635D01*
X33994541Y-21232240D01*
X33926280Y-21303671D01*
X33865629Y-21367138D01*
X33758201Y-21524621D01*
X33703293Y-21569621D01*
X33632768Y-21577792D01*
X33569021Y-21546538D01*
X33548324Y-21522054D01*
X33467822Y-21397617D01*
X33467820Y-21397614D01*
X33465014Y-21393277D01*
X33314670Y-21228051D01*
X33310619Y-21224852D01*
X33310615Y-21224848D01*
X33143414Y-21092800D01*
X33143410Y-21092798D01*
X33139359Y-21089598D01*
X33103028Y-21069542D01*
X33037371Y-21033298D01*
X32943789Y-20981638D01*
X32938920Y-20979914D01*
X32938916Y-20979912D01*
X32738087Y-20908795D01*
X32738083Y-20908794D01*
X32733212Y-20907069D01*
X32728119Y-20906162D01*
X32728116Y-20906161D01*
X32518373Y-20868800D01*
X32518367Y-20868799D01*
X32513284Y-20867894D01*
X32439452Y-20866992D01*
X32295081Y-20865228D01*
X32295079Y-20865228D01*
X32289911Y-20865165D01*
X32069091Y-20898955D01*
X31856756Y-20968357D01*
X31658607Y-21071507D01*
X31654474Y-21074610D01*
X31654471Y-21074612D01*
X31484100Y-21202530D01*
X31479965Y-21205635D01*
X31454541Y-21232240D01*
X31386280Y-21303671D01*
X31325629Y-21367138D01*
X31218201Y-21524621D01*
X31163293Y-21569621D01*
X31092768Y-21577792D01*
X31029021Y-21546538D01*
X31008324Y-21522054D01*
X30927822Y-21397617D01*
X30927820Y-21397614D01*
X30925014Y-21393277D01*
X30774670Y-21228051D01*
X30770619Y-21224852D01*
X30770615Y-21224848D01*
X30603414Y-21092800D01*
X30603410Y-21092798D01*
X30599359Y-21089598D01*
X30563028Y-21069542D01*
X30497371Y-21033298D01*
X30403789Y-20981638D01*
X30398920Y-20979914D01*
X30398916Y-20979912D01*
X30198087Y-20908795D01*
X30198083Y-20908794D01*
X30193212Y-20907069D01*
X30188119Y-20906162D01*
X30188116Y-20906161D01*
X29978373Y-20868800D01*
X29978367Y-20868799D01*
X29973284Y-20867894D01*
X29899452Y-20866992D01*
X29755081Y-20865228D01*
X29755079Y-20865228D01*
X29749911Y-20865165D01*
X29529091Y-20898955D01*
X29316756Y-20968357D01*
X29118607Y-21071507D01*
X29114474Y-21074610D01*
X29114471Y-21074612D01*
X28944100Y-21202530D01*
X28939965Y-21205635D01*
X28914541Y-21232240D01*
X28846280Y-21303671D01*
X28785629Y-21367138D01*
X28678201Y-21524621D01*
X28623293Y-21569621D01*
X28552768Y-21577792D01*
X28489021Y-21546538D01*
X28468324Y-21522054D01*
X28387822Y-21397617D01*
X28387820Y-21397614D01*
X28385014Y-21393277D01*
X28234670Y-21228051D01*
X28230619Y-21224852D01*
X28230615Y-21224848D01*
X28063414Y-21092800D01*
X28063410Y-21092798D01*
X28059359Y-21089598D01*
X28023028Y-21069542D01*
X27957371Y-21033298D01*
X27863789Y-20981638D01*
X27858920Y-20979914D01*
X27858916Y-20979912D01*
X27658087Y-20908795D01*
X27658083Y-20908794D01*
X27653212Y-20907069D01*
X27648119Y-20906162D01*
X27648116Y-20906161D01*
X27438373Y-20868800D01*
X27438367Y-20868799D01*
X27433284Y-20867894D01*
X27359452Y-20866992D01*
X27215081Y-20865228D01*
X27215079Y-20865228D01*
X27209911Y-20865165D01*
X26989091Y-20898955D01*
X26776756Y-20968357D01*
X26578607Y-21071507D01*
X26574474Y-21074610D01*
X26574471Y-21074612D01*
X26404100Y-21202530D01*
X26399965Y-21205635D01*
X26374541Y-21232240D01*
X26306280Y-21303671D01*
X26245629Y-21367138D01*
X26138204Y-21524618D01*
X26137898Y-21525066D01*
X26082987Y-21570069D01*
X26012462Y-21578240D01*
X25948715Y-21546986D01*
X25928018Y-21522502D01*
X25847426Y-21397926D01*
X25841136Y-21389757D01*
X25697806Y-21232240D01*
X25690273Y-21225215D01*
X25523139Y-21093222D01*
X25514552Y-21087517D01*
X25328117Y-20984599D01*
X25318705Y-20980369D01*
X25117959Y-20909280D01*
X25107988Y-20906646D01*
X25036837Y-20893972D01*
X25023540Y-20895432D01*
X25019000Y-20909989D01*
X25019000Y-22353000D01*
X24998998Y-22421121D01*
X24945342Y-22467614D01*
X24893000Y-22479000D01*
X24637000Y-22479000D01*
X24568879Y-22458998D01*
X24522386Y-22405342D01*
X24511000Y-22353000D01*
X24511000Y-20908102D01*
X24507082Y-20894758D01*
X24492806Y-20892771D01*
X24454324Y-20898660D01*
X24444288Y-20901051D01*
X24241868Y-20967212D01*
X24232359Y-20971209D01*
X24043463Y-21069542D01*
X24034738Y-21075036D01*
X23864433Y-21202905D01*
X23856726Y-21209748D01*
X23709590Y-21363717D01*
X23703109Y-21371722D01*
X23598498Y-21525074D01*
X23543587Y-21570076D01*
X23473062Y-21578247D01*
X23409315Y-21546993D01*
X23388618Y-21522509D01*
X23307822Y-21397617D01*
X23307820Y-21397614D01*
X23305014Y-21393277D01*
X23154670Y-21228051D01*
X23150619Y-21224852D01*
X23150615Y-21224848D01*
X22983414Y-21092800D01*
X22983410Y-21092798D01*
X22979359Y-21089598D01*
X22943028Y-21069542D01*
X22877371Y-21033298D01*
X22783789Y-20981638D01*
X22778920Y-20979914D01*
X22778916Y-20979912D01*
X22578087Y-20908795D01*
X22578083Y-20908794D01*
X22573212Y-20907069D01*
X22568119Y-20906162D01*
X22568116Y-20906161D01*
X22358373Y-20868800D01*
X22358367Y-20868799D01*
X22353284Y-20867894D01*
X22279452Y-20866992D01*
X22135081Y-20865228D01*
X22135079Y-20865228D01*
X22129911Y-20865165D01*
X21909091Y-20898955D01*
X21696756Y-20968357D01*
X21498607Y-21071507D01*
X21494474Y-21074610D01*
X21494471Y-21074612D01*
X21324100Y-21202530D01*
X21319965Y-21205635D01*
X21294541Y-21232240D01*
X21226280Y-21303671D01*
X21165629Y-21367138D01*
X21058201Y-21524621D01*
X21003293Y-21569621D01*
X20932768Y-21577792D01*
X20869021Y-21546538D01*
X20848324Y-21522054D01*
X20767822Y-21397617D01*
X20767820Y-21397614D01*
X20765014Y-21393277D01*
X20614670Y-21228051D01*
X20610619Y-21224852D01*
X20610615Y-21224848D01*
X20443414Y-21092800D01*
X20443410Y-21092798D01*
X20439359Y-21089598D01*
X20403028Y-21069542D01*
X20337371Y-21033298D01*
X20243789Y-20981638D01*
X20238920Y-20979914D01*
X20238916Y-20979912D01*
X20038087Y-20908795D01*
X20038083Y-20908794D01*
X20033212Y-20907069D01*
X20028119Y-20906162D01*
X20028116Y-20906161D01*
X19818373Y-20868800D01*
X19818367Y-20868799D01*
X19813284Y-20867894D01*
X19739452Y-20866992D01*
X19595081Y-20865228D01*
X19595079Y-20865228D01*
X19589911Y-20865165D01*
X19369091Y-20898955D01*
X19156756Y-20968357D01*
X18958607Y-21071507D01*
X18954474Y-21074610D01*
X18954471Y-21074612D01*
X18784100Y-21202530D01*
X18779965Y-21205635D01*
X18754541Y-21232240D01*
X18686280Y-21303671D01*
X18625629Y-21367138D01*
X18518201Y-21524621D01*
X18463293Y-21569621D01*
X18392768Y-21577792D01*
X18329021Y-21546538D01*
X18308324Y-21522054D01*
X18227822Y-21397617D01*
X18227820Y-21397614D01*
X18225014Y-21393277D01*
X18074670Y-21228051D01*
X18070619Y-21224852D01*
X18070615Y-21224848D01*
X17901408Y-21091216D01*
X17860345Y-21033298D01*
X17853500Y-20992334D01*
X17853500Y-11582526D01*
X17873502Y-11514405D01*
X17927158Y-11467912D01*
X17968518Y-11457006D01*
X18002595Y-11454024D01*
X18002601Y-11454023D01*
X18008087Y-11453543D01*
X18013400Y-11452119D01*
X18013402Y-11452119D01*
X18223933Y-11395707D01*
X18223935Y-11395706D01*
X18229243Y-11394284D01*
X18262788Y-11378642D01*
X18431762Y-11299849D01*
X18431767Y-11299846D01*
X18436749Y-11297523D01*
X18552823Y-11216247D01*
X18619789Y-11169357D01*
X18619792Y-11169355D01*
X18624300Y-11166198D01*
X18786198Y-11004300D01*
X18843665Y-10922229D01*
X18899122Y-10877901D01*
X18946878Y-10868500D01*
X19153122Y-10868500D01*
X19221243Y-10888502D01*
X19256335Y-10922229D01*
X19313802Y-11004300D01*
X19475700Y-11166198D01*
X19480208Y-11169355D01*
X19480211Y-11169357D01*
X19547177Y-11216247D01*
X19663251Y-11297523D01*
X19668233Y-11299846D01*
X19668238Y-11299849D01*
X19837212Y-11378642D01*
X19870757Y-11394284D01*
X19876065Y-11395706D01*
X19876067Y-11395707D01*
X20086598Y-11452119D01*
X20086600Y-11452119D01*
X20091913Y-11453543D01*
X20320000Y-11473498D01*
X20548087Y-11453543D01*
X20553400Y-11452119D01*
X20553402Y-11452119D01*
X20763933Y-11395707D01*
X20763935Y-11395706D01*
X20769243Y-11394284D01*
X20802788Y-11378642D01*
X20971762Y-11299849D01*
X20971767Y-11299846D01*
X20976749Y-11297523D01*
X21050243Y-11246062D01*
X29758493Y-11246062D01*
X29767789Y-11258077D01*
X29818994Y-11293931D01*
X29828489Y-11299414D01*
X30025947Y-11391490D01*
X30036239Y-11395236D01*
X30246688Y-11451625D01*
X30257481Y-11453528D01*
X30474525Y-11472517D01*
X30485475Y-11472517D01*
X30702519Y-11453528D01*
X30713312Y-11451625D01*
X30923761Y-11395236D01*
X30934053Y-11391490D01*
X31131511Y-11299414D01*
X31141006Y-11293931D01*
X31193048Y-11257491D01*
X31201424Y-11247012D01*
X31200925Y-11246062D01*
X32298493Y-11246062D01*
X32307789Y-11258077D01*
X32358994Y-11293931D01*
X32368489Y-11299414D01*
X32565947Y-11391490D01*
X32576239Y-11395236D01*
X32786688Y-11451625D01*
X32797481Y-11453528D01*
X33014525Y-11472517D01*
X33025475Y-11472517D01*
X33242519Y-11453528D01*
X33253312Y-11451625D01*
X33463761Y-11395236D01*
X33474053Y-11391490D01*
X33671511Y-11299414D01*
X33681006Y-11293931D01*
X33733048Y-11257491D01*
X33741424Y-11247012D01*
X33734356Y-11233566D01*
X33032812Y-10532022D01*
X33018868Y-10524408D01*
X33017035Y-10524539D01*
X33010420Y-10528790D01*
X32304923Y-11234287D01*
X32298493Y-11246062D01*
X31200925Y-11246062D01*
X31194356Y-11233566D01*
X30492812Y-10532022D01*
X30478868Y-10524408D01*
X30477035Y-10524539D01*
X30470420Y-10528790D01*
X29764923Y-11234287D01*
X29758493Y-11246062D01*
X21050243Y-11246062D01*
X21092823Y-11216247D01*
X21159789Y-11169357D01*
X21159792Y-11169355D01*
X21164300Y-11166198D01*
X21326198Y-11004300D01*
X21457523Y-10816749D01*
X21459846Y-10811767D01*
X21459849Y-10811762D01*
X21551961Y-10614225D01*
X21551961Y-10614224D01*
X21554284Y-10609243D01*
X21574976Y-10532022D01*
X21612119Y-10393402D01*
X21612119Y-10393400D01*
X21613543Y-10388087D01*
X21633019Y-10165475D01*
X29167483Y-10165475D01*
X29186472Y-10382519D01*
X29188375Y-10393312D01*
X29244764Y-10603761D01*
X29248510Y-10614053D01*
X29340586Y-10811511D01*
X29346069Y-10821006D01*
X29382509Y-10873048D01*
X29392988Y-10881424D01*
X29406434Y-10874356D01*
X30107978Y-10172812D01*
X30114356Y-10161132D01*
X30844408Y-10161132D01*
X30844539Y-10162965D01*
X30848790Y-10169580D01*
X31554287Y-10875077D01*
X31566062Y-10881507D01*
X31578077Y-10872211D01*
X31613931Y-10821006D01*
X31619414Y-10811511D01*
X31635805Y-10776359D01*
X31682722Y-10723074D01*
X31750999Y-10703613D01*
X31818959Y-10724155D01*
X31864195Y-10776359D01*
X31880586Y-10811511D01*
X31886069Y-10821006D01*
X31922509Y-10873048D01*
X31932988Y-10881424D01*
X31946434Y-10874356D01*
X32647978Y-10172812D01*
X32654356Y-10161132D01*
X33384408Y-10161132D01*
X33384539Y-10162965D01*
X33388790Y-10169580D01*
X34094287Y-10875077D01*
X34106062Y-10881507D01*
X34118077Y-10872211D01*
X34153931Y-10821006D01*
X34159414Y-10811511D01*
X34251490Y-10614053D01*
X34255236Y-10603761D01*
X34311625Y-10393312D01*
X34313528Y-10382519D01*
X34332517Y-10165475D01*
X34332517Y-10154525D01*
X34313528Y-9937481D01*
X34311625Y-9926688D01*
X34255236Y-9716239D01*
X34251490Y-9705947D01*
X34159414Y-9508489D01*
X34153931Y-9498994D01*
X34117491Y-9446952D01*
X34107012Y-9438576D01*
X34093566Y-9445644D01*
X33392022Y-10147188D01*
X33384408Y-10161132D01*
X32654356Y-10161132D01*
X32655592Y-10158868D01*
X32655461Y-10157035D01*
X32651210Y-10150420D01*
X31945713Y-9444923D01*
X31933938Y-9438493D01*
X31921923Y-9447789D01*
X31886069Y-9498994D01*
X31880586Y-9508489D01*
X31864195Y-9543641D01*
X31817278Y-9596926D01*
X31749001Y-9616387D01*
X31681041Y-9595845D01*
X31635805Y-9543641D01*
X31619414Y-9508489D01*
X31613931Y-9498994D01*
X31577491Y-9446952D01*
X31567012Y-9438576D01*
X31553566Y-9445644D01*
X30852022Y-10147188D01*
X30844408Y-10161132D01*
X30114356Y-10161132D01*
X30115592Y-10158868D01*
X30115461Y-10157035D01*
X30111210Y-10150420D01*
X29405713Y-9444923D01*
X29393938Y-9438493D01*
X29381923Y-9447789D01*
X29346069Y-9498994D01*
X29340586Y-9508489D01*
X29248510Y-9705947D01*
X29244764Y-9716239D01*
X29188375Y-9926688D01*
X29186472Y-9937481D01*
X29167483Y-10154525D01*
X29167483Y-10165475D01*
X21633019Y-10165475D01*
X21633498Y-10160000D01*
X21613543Y-9931913D01*
X21576981Y-9795461D01*
X21555707Y-9716067D01*
X21555706Y-9716065D01*
X21554284Y-9710757D01*
X21500700Y-9595845D01*
X21459849Y-9508238D01*
X21459846Y-9508233D01*
X21457523Y-9503251D01*
X21326198Y-9315700D01*
X21189093Y-9178595D01*
X21155067Y-9116283D01*
X21158164Y-9072988D01*
X29758576Y-9072988D01*
X29765644Y-9086434D01*
X30467188Y-9787978D01*
X30481132Y-9795592D01*
X30482965Y-9795461D01*
X30489580Y-9791210D01*
X31195077Y-9085713D01*
X31201507Y-9073938D01*
X31200772Y-9072988D01*
X32298576Y-9072988D01*
X32305644Y-9086434D01*
X33007188Y-9787978D01*
X33021132Y-9795592D01*
X33022965Y-9795461D01*
X33029580Y-9791210D01*
X33735077Y-9085713D01*
X33741507Y-9073938D01*
X33732211Y-9061923D01*
X33681006Y-9026069D01*
X33671511Y-9020586D01*
X33474053Y-8928510D01*
X33463761Y-8924764D01*
X33253312Y-8868375D01*
X33242519Y-8866472D01*
X33025475Y-8847483D01*
X33014525Y-8847483D01*
X32797481Y-8866472D01*
X32786688Y-8868375D01*
X32576239Y-8924764D01*
X32565947Y-8928510D01*
X32368489Y-9020586D01*
X32358994Y-9026069D01*
X32306952Y-9062509D01*
X32298576Y-9072988D01*
X31200772Y-9072988D01*
X31192211Y-9061923D01*
X31141006Y-9026069D01*
X31131511Y-9020586D01*
X30934053Y-8928510D01*
X30923761Y-8924764D01*
X30713312Y-8868375D01*
X30702519Y-8866472D01*
X30485475Y-8847483D01*
X30474525Y-8847483D01*
X30257481Y-8866472D01*
X30246688Y-8868375D01*
X30036239Y-8924764D01*
X30025947Y-8928510D01*
X29828489Y-9020586D01*
X29818994Y-9026069D01*
X29766952Y-9062509D01*
X29758576Y-9072988D01*
X21158164Y-9072988D01*
X21160132Y-9045468D01*
X21202679Y-8988632D01*
X21269199Y-8963821D01*
X21278188Y-8963500D01*
X24736088Y-8963500D01*
X24744658Y-8963792D01*
X24794776Y-8967209D01*
X24794780Y-8967209D01*
X24802352Y-8967725D01*
X24809829Y-8966420D01*
X24809830Y-8966420D01*
X24836308Y-8961799D01*
X24865303Y-8956738D01*
X24871821Y-8955777D01*
X24935242Y-8948102D01*
X24942343Y-8945419D01*
X24944952Y-8944778D01*
X24961262Y-8940315D01*
X24963798Y-8939550D01*
X24971284Y-8938243D01*
X25029800Y-8912556D01*
X25035904Y-8910065D01*
X25088548Y-8890173D01*
X25088549Y-8890172D01*
X25095656Y-8887487D01*
X25101919Y-8883183D01*
X25104285Y-8881946D01*
X25119097Y-8873701D01*
X25121351Y-8872368D01*
X25128305Y-8869315D01*
X25179002Y-8830413D01*
X25184332Y-8826541D01*
X25230720Y-8794661D01*
X25230725Y-8794656D01*
X25236981Y-8790357D01*
X25278436Y-8743829D01*
X25283416Y-8738554D01*
X26585908Y-7436062D01*
X29758493Y-7436062D01*
X29767789Y-7448077D01*
X29818994Y-7483931D01*
X29828489Y-7489414D01*
X30025947Y-7581490D01*
X30036239Y-7585236D01*
X30246688Y-7641625D01*
X30257481Y-7643528D01*
X30474525Y-7662517D01*
X30485475Y-7662517D01*
X30702519Y-7643528D01*
X30713312Y-7641625D01*
X30923761Y-7585236D01*
X30934053Y-7581490D01*
X31131511Y-7489414D01*
X31141006Y-7483931D01*
X31193048Y-7447491D01*
X31201424Y-7437012D01*
X31200925Y-7436062D01*
X32298493Y-7436062D01*
X32307789Y-7448077D01*
X32358994Y-7483931D01*
X32368489Y-7489414D01*
X32565947Y-7581490D01*
X32576239Y-7585236D01*
X32786688Y-7641625D01*
X32797481Y-7643528D01*
X33014525Y-7662517D01*
X33025475Y-7662517D01*
X33242519Y-7643528D01*
X33253312Y-7641625D01*
X33463761Y-7585236D01*
X33474053Y-7581490D01*
X33671511Y-7489414D01*
X33681006Y-7483931D01*
X33733048Y-7447491D01*
X33741424Y-7437012D01*
X33734356Y-7423566D01*
X33032812Y-6722022D01*
X33018868Y-6714408D01*
X33017035Y-6714539D01*
X33010420Y-6718790D01*
X32304923Y-7424287D01*
X32298493Y-7436062D01*
X31200925Y-7436062D01*
X31194356Y-7423566D01*
X30492812Y-6722022D01*
X30478868Y-6714408D01*
X30477035Y-6714539D01*
X30470420Y-6718790D01*
X29764923Y-7424287D01*
X29758493Y-7436062D01*
X26585908Y-7436062D01*
X27666495Y-6355475D01*
X29167483Y-6355475D01*
X29186472Y-6572519D01*
X29188375Y-6583312D01*
X29244764Y-6793761D01*
X29248510Y-6804053D01*
X29340586Y-7001511D01*
X29346069Y-7011006D01*
X29382509Y-7063048D01*
X29392988Y-7071424D01*
X29406434Y-7064356D01*
X30107978Y-6362812D01*
X30114356Y-6351132D01*
X30844408Y-6351132D01*
X30844539Y-6352965D01*
X30848790Y-6359580D01*
X31554287Y-7065077D01*
X31566062Y-7071507D01*
X31578077Y-7062211D01*
X31613931Y-7011006D01*
X31619414Y-7001511D01*
X31635805Y-6966359D01*
X31682722Y-6913074D01*
X31750999Y-6893613D01*
X31818959Y-6914155D01*
X31864195Y-6966359D01*
X31880586Y-7001511D01*
X31886069Y-7011006D01*
X31922509Y-7063048D01*
X31932988Y-7071424D01*
X31946434Y-7064356D01*
X32647978Y-6362812D01*
X32654356Y-6351132D01*
X33384408Y-6351132D01*
X33384539Y-6352965D01*
X33388790Y-6359580D01*
X34094287Y-7065077D01*
X34106062Y-7071507D01*
X34118077Y-7062211D01*
X34153931Y-7011006D01*
X34159414Y-7001511D01*
X34251490Y-6804053D01*
X34255236Y-6793761D01*
X34311625Y-6583312D01*
X34313528Y-6572519D01*
X34332517Y-6355475D01*
X34332517Y-6344525D01*
X34313528Y-6127481D01*
X34311625Y-6116688D01*
X34255236Y-5906239D01*
X34251490Y-5895947D01*
X34159414Y-5698489D01*
X34153931Y-5688994D01*
X34117491Y-5636952D01*
X34107012Y-5628576D01*
X34093566Y-5635644D01*
X33392022Y-6337188D01*
X33384408Y-6351132D01*
X32654356Y-6351132D01*
X32655592Y-6348868D01*
X32655461Y-6347035D01*
X32651210Y-6340420D01*
X31945713Y-5634923D01*
X31933938Y-5628493D01*
X31921923Y-5637789D01*
X31886069Y-5688994D01*
X31880586Y-5698489D01*
X31864195Y-5733641D01*
X31817278Y-5786926D01*
X31749001Y-5806387D01*
X31681041Y-5785845D01*
X31635805Y-5733641D01*
X31619414Y-5698489D01*
X31613931Y-5688994D01*
X31577491Y-5636952D01*
X31567012Y-5628576D01*
X31553566Y-5635644D01*
X30852022Y-6337188D01*
X30844408Y-6351132D01*
X30114356Y-6351132D01*
X30115592Y-6348868D01*
X30115461Y-6347035D01*
X30111210Y-6340420D01*
X29405713Y-5634923D01*
X29393938Y-5628493D01*
X29381923Y-5637789D01*
X29346069Y-5688994D01*
X29340586Y-5698489D01*
X29248510Y-5895947D01*
X29244764Y-5906239D01*
X29188375Y-6116688D01*
X29186472Y-6127481D01*
X29167483Y-6344525D01*
X29167483Y-6355475D01*
X27666495Y-6355475D01*
X28758982Y-5262988D01*
X29758576Y-5262988D01*
X29765644Y-5276434D01*
X30467188Y-5977978D01*
X30481132Y-5985592D01*
X30482965Y-5985461D01*
X30489580Y-5981210D01*
X31195077Y-5275713D01*
X31201507Y-5263938D01*
X31200772Y-5262988D01*
X32298576Y-5262988D01*
X32305644Y-5276434D01*
X33007188Y-5977978D01*
X33021132Y-5985592D01*
X33022965Y-5985461D01*
X33029580Y-5981210D01*
X33735077Y-5275713D01*
X33741507Y-5263938D01*
X33732211Y-5251923D01*
X33681006Y-5216069D01*
X33671511Y-5210586D01*
X33474053Y-5118510D01*
X33463761Y-5114764D01*
X33253312Y-5058375D01*
X33242519Y-5056472D01*
X33025475Y-5037483D01*
X33014525Y-5037483D01*
X32797481Y-5056472D01*
X32786688Y-5058375D01*
X32576239Y-5114764D01*
X32565947Y-5118510D01*
X32368489Y-5210586D01*
X32358994Y-5216069D01*
X32306952Y-5252509D01*
X32298576Y-5262988D01*
X31200772Y-5262988D01*
X31192211Y-5251923D01*
X31141006Y-5216069D01*
X31131511Y-5210586D01*
X30934053Y-5118510D01*
X30923761Y-5114764D01*
X30713312Y-5058375D01*
X30702519Y-5056472D01*
X30485475Y-5037483D01*
X30474525Y-5037483D01*
X30257481Y-5056472D01*
X30246688Y-5058375D01*
X30036239Y-5114764D01*
X30025947Y-5118510D01*
X29828489Y-5210586D01*
X29818994Y-5216069D01*
X29766952Y-5252509D01*
X29758576Y-5262988D01*
X28758982Y-5262988D01*
X30151988Y-3869982D01*
X30214300Y-3835956D01*
X30252063Y-3833556D01*
X30480000Y-3853498D01*
X30708087Y-3833543D01*
X30713400Y-3832119D01*
X30713402Y-3832119D01*
X30923933Y-3775707D01*
X30923935Y-3775706D01*
X30929243Y-3774284D01*
X30939254Y-3769616D01*
X31131762Y-3679849D01*
X31131767Y-3679846D01*
X31136749Y-3677523D01*
X31267787Y-3585769D01*
X31319789Y-3549357D01*
X31319792Y-3549355D01*
X31324300Y-3546198D01*
X31486198Y-3384300D01*
X31493705Y-3373579D01*
X31543665Y-3302229D01*
X31599122Y-3257901D01*
X31646878Y-3248500D01*
X31853122Y-3248500D01*
X31921243Y-3268502D01*
X31956335Y-3302229D01*
X32006295Y-3373579D01*
X32013802Y-3384300D01*
X32175700Y-3546198D01*
X32180208Y-3549355D01*
X32180211Y-3549357D01*
X32232213Y-3585769D01*
X32363251Y-3677523D01*
X32368233Y-3679846D01*
X32368238Y-3679849D01*
X32560746Y-3769616D01*
X32570757Y-3774284D01*
X32576065Y-3775706D01*
X32576067Y-3775707D01*
X32786598Y-3832119D01*
X32786600Y-3832119D01*
X32791913Y-3833543D01*
X33020000Y-3853498D01*
X33248087Y-3833543D01*
X33253400Y-3832119D01*
X33253402Y-3832119D01*
X33463933Y-3775707D01*
X33463935Y-3775706D01*
X33469243Y-3774284D01*
X33479254Y-3769616D01*
X33671762Y-3679849D01*
X33671767Y-3679846D01*
X33676749Y-3677523D01*
X33807787Y-3585769D01*
X33859789Y-3549357D01*
X33859792Y-3549355D01*
X33864300Y-3546198D01*
X34026198Y-3384300D01*
X34034055Y-3373080D01*
X34104158Y-3272962D01*
X34157523Y-3196749D01*
X34159846Y-3191767D01*
X34159849Y-3191762D01*
X34251961Y-2994225D01*
X34251961Y-2994224D01*
X34254284Y-2989243D01*
X34257051Y-2978919D01*
X34312119Y-2773402D01*
X34312119Y-2773400D01*
X34313543Y-2768087D01*
X34333498Y-2540000D01*
X34313543Y-2311913D01*
X34254284Y-2090757D01*
X34251959Y-2085770D01*
X34224904Y-2027749D01*
X34214243Y-1957557D01*
X34243224Y-1892745D01*
X34302644Y-1853889D01*
X34339099Y-1848500D01*
X41860901Y-1848500D01*
X41929022Y-1868502D01*
X41975515Y-1922158D01*
X41985619Y-1992432D01*
X41975096Y-2027749D01*
X41948041Y-2085770D01*
X41945716Y-2090757D01*
X41886457Y-2311913D01*
X41866502Y-2540000D01*
X41886457Y-2768087D01*
X41887881Y-2773400D01*
X41887881Y-2773402D01*
X41942950Y-2978919D01*
X41945716Y-2989243D01*
X41948039Y-2994224D01*
X41948039Y-2994225D01*
X42040151Y-3191762D01*
X42040154Y-3191767D01*
X42042477Y-3196749D01*
X42095842Y-3272962D01*
X42165946Y-3373080D01*
X42173802Y-3384300D01*
X42335700Y-3546198D01*
X42340208Y-3549355D01*
X42340211Y-3549357D01*
X42392213Y-3585769D01*
X42523251Y-3677523D01*
X42528233Y-3679846D01*
X42528238Y-3679849D01*
X42720746Y-3769616D01*
X42730757Y-3774284D01*
X42736065Y-3775706D01*
X42736067Y-3775707D01*
X42946598Y-3832119D01*
X42946600Y-3832119D01*
X42951913Y-3833543D01*
X43180000Y-3853498D01*
X43408087Y-3833543D01*
X43413400Y-3832119D01*
X43413402Y-3832119D01*
X43623933Y-3775707D01*
X43623935Y-3775706D01*
X43629243Y-3774284D01*
X43639254Y-3769616D01*
X43831762Y-3679849D01*
X43831767Y-3679846D01*
X43836749Y-3677523D01*
X43967787Y-3585769D01*
X44019789Y-3549357D01*
X44019792Y-3549355D01*
X44024300Y-3546198D01*
X44186198Y-3384300D01*
X44193705Y-3373579D01*
X44243665Y-3302229D01*
X44299122Y-3257901D01*
X44346878Y-3248500D01*
X46009340Y-3248500D01*
X46077461Y-3268502D01*
X46098435Y-3285405D01*
X46976171Y-4163141D01*
X47010197Y-4225453D01*
X47012597Y-4263214D01*
X46996693Y-4445000D01*
X47012597Y-4626784D01*
X46998608Y-4696387D01*
X46976171Y-4726859D01*
X46098435Y-5604595D01*
X46036123Y-5638621D01*
X46009340Y-5641500D01*
X44346878Y-5641500D01*
X44278757Y-5621498D01*
X44243665Y-5587771D01*
X44189357Y-5510211D01*
X44189355Y-5510208D01*
X44186198Y-5505700D01*
X44024300Y-5343802D01*
X44019792Y-5340645D01*
X44019789Y-5340643D01*
X43901035Y-5257491D01*
X43836749Y-5212477D01*
X43831767Y-5210154D01*
X43831762Y-5210151D01*
X43634225Y-5118039D01*
X43634224Y-5118039D01*
X43629243Y-5115716D01*
X43623935Y-5114294D01*
X43623933Y-5114293D01*
X43413402Y-5057881D01*
X43413400Y-5057881D01*
X43408087Y-5056457D01*
X43180000Y-5036502D01*
X42951913Y-5056457D01*
X42946600Y-5057881D01*
X42946598Y-5057881D01*
X42736067Y-5114293D01*
X42736065Y-5114294D01*
X42730757Y-5115716D01*
X42725776Y-5118039D01*
X42725775Y-5118039D01*
X42528238Y-5210151D01*
X42528233Y-5210154D01*
X42523251Y-5212477D01*
X42458965Y-5257491D01*
X42340211Y-5340643D01*
X42340208Y-5340645D01*
X42335700Y-5343802D01*
X42173802Y-5505700D01*
X42170645Y-5510208D01*
X42170643Y-5510211D01*
X42137488Y-5557561D01*
X42042477Y-5693251D01*
X42040154Y-5698233D01*
X42040151Y-5698238D01*
X41952951Y-5885242D01*
X41945716Y-5900757D01*
X41944294Y-5906065D01*
X41944293Y-5906067D01*
X41923728Y-5982816D01*
X41886457Y-6121913D01*
X41866502Y-6350000D01*
X41886457Y-6578087D01*
X41887881Y-6583400D01*
X41887881Y-6583402D01*
X41925025Y-6722022D01*
X41945716Y-6799243D01*
X41948039Y-6804224D01*
X41948039Y-6804225D01*
X42040151Y-7001762D01*
X42040154Y-7001767D01*
X42042477Y-7006749D01*
X42173802Y-7194300D01*
X42335700Y-7356198D01*
X42340208Y-7359355D01*
X42340211Y-7359357D01*
X42401923Y-7402568D01*
X42523251Y-7487523D01*
X42528233Y-7489846D01*
X42528238Y-7489849D01*
X42724765Y-7581490D01*
X42730757Y-7584284D01*
X42736065Y-7585706D01*
X42736067Y-7585707D01*
X42946598Y-7642119D01*
X42946600Y-7642119D01*
X42951913Y-7643543D01*
X43180000Y-7663498D01*
X43408087Y-7643543D01*
X43413400Y-7642119D01*
X43413402Y-7642119D01*
X43623933Y-7585707D01*
X43623935Y-7585706D01*
X43629243Y-7584284D01*
X43635235Y-7581490D01*
X43831762Y-7489849D01*
X43831767Y-7489846D01*
X43836749Y-7487523D01*
X43958077Y-7402568D01*
X44019789Y-7359357D01*
X44019792Y-7359355D01*
X44024300Y-7356198D01*
X44186198Y-7194300D01*
X44243665Y-7112229D01*
X44299122Y-7067901D01*
X44346878Y-7058500D01*
X46326088Y-7058500D01*
X46334658Y-7058792D01*
X46384776Y-7062209D01*
X46384780Y-7062209D01*
X46392352Y-7062725D01*
X46399829Y-7061420D01*
X46399830Y-7061420D01*
X46445209Y-7053500D01*
X46455303Y-7051738D01*
X46461821Y-7050777D01*
X46525242Y-7043102D01*
X46532343Y-7040419D01*
X46534952Y-7039778D01*
X46551262Y-7035315D01*
X46553798Y-7034550D01*
X46561284Y-7033243D01*
X46619800Y-7007556D01*
X46625904Y-7005065D01*
X46630319Y-7003397D01*
X46685656Y-6982487D01*
X46691919Y-6978183D01*
X46694285Y-6976946D01*
X46709097Y-6968701D01*
X46711351Y-6967368D01*
X46718305Y-6964315D01*
X46769002Y-6925413D01*
X46774332Y-6921541D01*
X46820720Y-6889661D01*
X46820725Y-6889656D01*
X46826981Y-6885357D01*
X46868436Y-6838829D01*
X46873416Y-6833554D01*
X47978141Y-5728829D01*
X48040453Y-5694803D01*
X48078214Y-5692403D01*
X48260000Y-5708307D01*
X48479371Y-5689115D01*
X48692076Y-5632120D01*
X48891654Y-5539056D01*
X49010708Y-5455693D01*
X49067527Y-5415908D01*
X49067529Y-5415906D01*
X49072038Y-5412749D01*
X49227749Y-5257038D01*
X49230921Y-5252509D01*
X49350899Y-5081162D01*
X49350900Y-5081160D01*
X49354056Y-5076653D01*
X49356379Y-5071671D01*
X49356382Y-5071666D01*
X49403132Y-4971409D01*
X49415805Y-4944231D01*
X49462722Y-4890946D01*
X49530999Y-4871485D01*
X49598959Y-4892027D01*
X49644195Y-4944230D01*
X49656868Y-4971409D01*
X49703618Y-5071666D01*
X49703621Y-5071671D01*
X49705944Y-5076653D01*
X49709100Y-5081160D01*
X49709101Y-5081162D01*
X49829080Y-5252509D01*
X49832251Y-5257038D01*
X49987962Y-5412749D01*
X49992471Y-5415906D01*
X49992473Y-5415908D01*
X50037771Y-5447626D01*
X50082099Y-5503084D01*
X50091500Y-5550839D01*
X50091500Y-5686088D01*
X50091208Y-5694658D01*
X50088551Y-5733641D01*
X50087275Y-5752352D01*
X50088580Y-5759829D01*
X50088580Y-5759830D01*
X50098261Y-5815299D01*
X50099223Y-5821821D01*
X50106898Y-5885242D01*
X50109581Y-5892343D01*
X50110222Y-5894952D01*
X50114685Y-5911262D01*
X50115450Y-5913798D01*
X50116757Y-5921284D01*
X50119811Y-5928241D01*
X50142442Y-5979795D01*
X50144933Y-5985899D01*
X50167513Y-6045656D01*
X50171817Y-6051919D01*
X50173054Y-6054285D01*
X50181299Y-6069097D01*
X50182632Y-6071351D01*
X50185685Y-6078305D01*
X50223353Y-6127393D01*
X50224579Y-6128991D01*
X50228459Y-6134332D01*
X50260339Y-6180720D01*
X50260344Y-6180725D01*
X50264643Y-6186981D01*
X50270313Y-6192032D01*
X50270314Y-6192034D01*
X50311170Y-6228435D01*
X50316446Y-6233416D01*
X51548557Y-7465528D01*
X51554411Y-7471793D01*
X51592439Y-7515385D01*
X51644729Y-7552136D01*
X51649971Y-7556028D01*
X51700282Y-7595476D01*
X51707201Y-7598600D01*
X51709493Y-7599988D01*
X51724165Y-7608357D01*
X51726525Y-7609622D01*
X51732739Y-7613990D01*
X51739818Y-7616750D01*
X51739820Y-7616751D01*
X51792275Y-7637202D01*
X51798344Y-7639753D01*
X51856573Y-7666045D01*
X51864046Y-7667430D01*
X51866612Y-7668234D01*
X51882835Y-7672855D01*
X51885427Y-7673520D01*
X51892509Y-7676282D01*
X51900044Y-7677274D01*
X51955861Y-7684622D01*
X51962377Y-7685654D01*
X52000770Y-7692770D01*
X52025186Y-7697295D01*
X52032766Y-7696858D01*
X52032767Y-7696858D01*
X52087380Y-7693709D01*
X52094633Y-7693500D01*
X53629340Y-7693500D01*
X53697461Y-7713502D01*
X53718435Y-7730405D01*
X54999671Y-9011641D01*
X55033697Y-9073953D01*
X55028632Y-9144768D01*
X54999671Y-9189831D01*
X54873802Y-9315700D01*
X54742477Y-9503251D01*
X54740154Y-9508233D01*
X54740151Y-9508238D01*
X54699300Y-9595845D01*
X54645716Y-9710757D01*
X54644294Y-9716065D01*
X54644293Y-9716067D01*
X54623019Y-9795461D01*
X54586457Y-9931913D01*
X54566502Y-10160000D01*
X54586457Y-10388087D01*
X54587881Y-10393400D01*
X54587881Y-10393402D01*
X54625025Y-10532022D01*
X54645716Y-10609243D01*
X54648039Y-10614224D01*
X54648039Y-10614225D01*
X54740151Y-10811762D01*
X54740154Y-10811767D01*
X54742477Y-10816749D01*
X54873802Y-11004300D01*
X55035700Y-11166198D01*
X55040208Y-11169355D01*
X55040211Y-11169357D01*
X55107177Y-11216247D01*
X55223251Y-11297523D01*
X55228233Y-11299846D01*
X55228238Y-11299849D01*
X55397212Y-11378642D01*
X55430757Y-11394284D01*
X55436065Y-11395706D01*
X55436067Y-11395707D01*
X55646598Y-11452119D01*
X55646600Y-11452119D01*
X55651913Y-11453543D01*
X55880000Y-11473498D01*
X56108087Y-11453543D01*
X56113400Y-11452119D01*
X56113402Y-11452119D01*
X56323933Y-11395707D01*
X56323935Y-11395706D01*
X56329243Y-11394284D01*
X56362788Y-11378642D01*
X56531762Y-11299849D01*
X56531767Y-11299846D01*
X56536749Y-11297523D01*
X56652823Y-11216247D01*
X56719789Y-11169357D01*
X56719792Y-11169355D01*
X56724300Y-11166198D01*
X56886198Y-11004300D01*
X57017523Y-10816749D01*
X57019846Y-10811767D01*
X57019849Y-10811762D01*
X57111961Y-10614225D01*
X57111961Y-10614224D01*
X57114284Y-10609243D01*
X57134976Y-10532022D01*
X57172119Y-10393402D01*
X57172119Y-10393400D01*
X57173543Y-10388087D01*
X57193498Y-10160000D01*
X57173543Y-9931913D01*
X57136981Y-9795461D01*
X57115707Y-9716067D01*
X57115706Y-9716065D01*
X57114284Y-9710757D01*
X57060700Y-9595845D01*
X57019849Y-9508238D01*
X57019846Y-9508233D01*
X57017523Y-9503251D01*
X56886198Y-9315700D01*
X56724300Y-9153802D01*
X56719792Y-9150645D01*
X56719789Y-9150643D01*
X56642229Y-9096335D01*
X56597901Y-9040878D01*
X56588500Y-8993122D01*
X56588500Y-8918927D01*
X56588792Y-8910358D01*
X56592210Y-8860225D01*
X56592210Y-8860221D01*
X56592726Y-8852648D01*
X56581736Y-8789681D01*
X56580775Y-8783165D01*
X56576015Y-8743830D01*
X56573102Y-8719758D01*
X56570419Y-8712657D01*
X56569778Y-8710048D01*
X56565309Y-8693715D01*
X56564548Y-8691195D01*
X56563243Y-8683717D01*
X56560191Y-8676764D01*
X56537559Y-8625204D01*
X56535068Y-8619099D01*
X56515175Y-8566456D01*
X56515173Y-8566452D01*
X56512487Y-8559344D01*
X56508184Y-8553083D01*
X56506947Y-8550717D01*
X56498720Y-8535937D01*
X56497369Y-8533652D01*
X56494315Y-8526695D01*
X56489695Y-8520675D01*
X56489692Y-8520669D01*
X56455421Y-8476009D01*
X56451541Y-8470668D01*
X56419661Y-8424280D01*
X56419656Y-8424275D01*
X56415357Y-8418019D01*
X56368829Y-8376564D01*
X56363554Y-8371584D01*
X54496450Y-6504480D01*
X54490596Y-6498215D01*
X54490201Y-6497762D01*
X54452561Y-6454615D01*
X54400280Y-6417871D01*
X54394986Y-6413939D01*
X54350693Y-6379209D01*
X54344718Y-6374524D01*
X54337802Y-6371401D01*
X54335516Y-6370017D01*
X54320835Y-6361643D01*
X54318475Y-6360378D01*
X54312261Y-6356010D01*
X54305182Y-6353250D01*
X54305180Y-6353249D01*
X54252725Y-6332798D01*
X54246656Y-6330247D01*
X54188427Y-6303955D01*
X54180960Y-6302571D01*
X54178405Y-6301770D01*
X54162152Y-6297141D01*
X54159572Y-6296478D01*
X54152491Y-6293718D01*
X54144960Y-6292727D01*
X54144958Y-6292726D01*
X54115339Y-6288827D01*
X54089139Y-6285378D01*
X54082641Y-6284348D01*
X54019814Y-6272704D01*
X54012234Y-6273141D01*
X54012233Y-6273141D01*
X53957608Y-6276291D01*
X53950354Y-6276500D01*
X52415660Y-6276500D01*
X52347539Y-6256498D01*
X52326565Y-6239595D01*
X51644974Y-5558004D01*
X51610948Y-5495692D01*
X51616013Y-5424877D01*
X51644973Y-5379814D01*
X51767749Y-5257038D01*
X51770921Y-5252509D01*
X51852287Y-5136305D01*
X51907744Y-5091977D01*
X51978363Y-5084668D01*
X52041724Y-5116699D01*
X52077709Y-5177900D01*
X52081500Y-5208576D01*
X52081500Y-5243134D01*
X52088255Y-5305316D01*
X52139385Y-5441705D01*
X52226739Y-5558261D01*
X52343295Y-5645615D01*
X52479684Y-5696745D01*
X52541866Y-5703500D01*
X54138134Y-5703500D01*
X54200316Y-5696745D01*
X54336705Y-5645615D01*
X54453261Y-5558261D01*
X54540615Y-5441705D01*
X54591745Y-5305316D01*
X54598500Y-5243134D01*
X54598500Y-3646866D01*
X54591745Y-3584684D01*
X54540615Y-3448295D01*
X54453261Y-3331739D01*
X54336705Y-3244385D01*
X54200316Y-3193255D01*
X54138134Y-3186500D01*
X53135660Y-3186500D01*
X53067539Y-3166498D01*
X53046565Y-3149595D01*
X50620565Y-723595D01*
X50586539Y-661283D01*
X50591604Y-590468D01*
X50634151Y-533632D01*
X50700671Y-508821D01*
X50709660Y-508500D01*
X57785500Y-508500D01*
X57853621Y-528502D01*
X57900114Y-582158D01*
X57911500Y-634500D01*
X57911500Y-26670500D01*
X57891498Y-26738621D01*
X57837842Y-26785114D01*
X57785500Y-26796500D01*
X634500Y-26796500D01*
X566379Y-26776498D01*
X519886Y-26722842D01*
X508500Y-26670500D01*
X508500Y-634500D01*
X528502Y-566379D01*
X582158Y-519886D01*
X634500Y-508500D01*
X5175340Y-508500D01*
X5243461Y-528502D01*
G37*
%TD.AperFunction*%
%TD*%
M02*
