M48
; DRILL file {KiCad 6.0.9+dfsg-1} date Fri 24 Feb 2023 06:39:56 PM PST
; FORMAT={-:-/ absolute / metric / decimal}
; #@! TF.CreationDate,2023-02-24T18:39:56-08:00
; #@! TF.GenerationSoftware,Kicad,Pcbnew,6.0.9+dfsg-1
; #@! TF.FileFunction,Plated,1,2,PTH
FMAT,2
METRIC
; #@! TA.AperFunction,Plated,PTH,ComponentDrill
T1C0.800
; #@! TA.AperFunction,Plated,PTH,ComponentDrill
T2C1.000
%
G90
G05
T1
X7.62Y-10.16
X10.16Y-4.085
X12.7Y-4.085
X15.24Y-4.085
X17.78Y-10.16
X20.32Y-2.54
X20.32Y-6.35
X20.32Y-10.16
X30.48Y-2.54
X30.48Y-6.35
X30.48Y-10.16
X33.02Y-2.54
X33.02Y-6.35
X33.02Y-10.16
X43.18Y-2.54
X43.18Y-6.35
X43.18Y-10.16
X45.72Y-10.16
X48.26Y-4.445
X50.8Y-4.445
X53.34Y-4.445
X55.88Y-10.16
T2
X3.81Y-10.16
X3.835Y-3.155
X3.835Y-5.695
X6.985Y-22.225
X6.985Y-24.765
X9.525Y-22.225
X9.525Y-24.765
X12.065Y-22.225
X12.065Y-24.765
X14.605Y-22.225
X14.605Y-24.765
X17.145Y-22.225
X17.145Y-24.765
X19.685Y-22.225
X19.685Y-24.765
X22.225Y-22.225
X22.225Y-24.765
X24.765Y-22.225
X24.765Y-24.765
X27.305Y-22.225
X27.305Y-24.765
X29.845Y-22.225
X29.845Y-24.765
X32.385Y-22.225
X32.385Y-24.765
X34.925Y-22.225
X34.925Y-24.765
X37.465Y-22.225
X37.465Y-24.765
X40.005Y-22.225
X40.005Y-24.765
X42.545Y-22.225
X42.545Y-24.765
X45.085Y-22.225
X45.085Y-24.765
X47.625Y-22.225
X47.625Y-24.765
X50.165Y-22.225
X50.165Y-24.765
X52.705Y-22.225
X52.705Y-24.765
X55.245Y-22.225
X55.245Y-24.765
T0
M30
